solid Antenna-2 Base-1
facet normal -0.6343097189163471 0.7714238044931464 -0.050561787444517274
  outer loop
    vertex -21.162171897635748 -2.3055589524938034 0.9919697156115294
    vertex -21.257141521230718 -2.4228789766970227 0.13976826400355868
    vertex -21.839961424708637 -2.8423392222786457 1.02715215326415
  endloop
endfacet
facet normal -0.6216095127378001 0.7823837191121552 -0.03843604743085622
  outer loop
    vertex -21.257141521230718 -2.4228789766970227 0.13976826400355868
    vertex -21.162171897635748 -2.3055589524938034 0.9919697156115294
    vertex -21.162171897635766 -2.3212663283728707 0.6722387344312649
  endloop
endfacet
facet normal -0.6216095127378001 0.7823837191121552 -0.03843604743085622
  outer loop
    vertex -22.005418707837833 -3.0048245510444125 0.3955561308112772
    vertex -21.235592922211538 -2.4126248337285907 4.5087272395680204e-13
    vertex -22.01375615105639 -3.030881136481956 3.9836225098884007e-13
  endloop
endfacet
facet normal -0.6216095127378001 0.7823837191121552 -0.03843604743085622
  outer loop
    vertex -21.235592922211538 -2.4126248337285907 4.5087272395680204e-13
    vertex -22.005418707837833 -3.0048245510444125 0.3955561308112772
    vertex -21.930681371522752 -2.926360135733553 0.7840414943378984
  endloop
endfacet
facet normal -0.6216095127378001 0.7823837191121552 -0.03843604743085622
  outer loop
    vertex -21.235592922211538 -2.4126248337285907 4.5087272395680204e-13
    vertex -21.930681371522752 -2.926360135733553 0.7840414943378984
    vertex -21.839961424708637 -2.8423392222786457 1.02715215326415
  endloop
endfacet
facet normal -0.6216095127378001 0.7823837191121552 -0.03843604743085622
  outer loop
    vertex -21.235592922211538 -2.4126248337285907 4.5087272395680204e-13
    vertex -21.839961424708637 -2.8423392222786457 1.02715215326415
    vertex -21.257141521230718 -2.4228789766970227 0.13976826400355868
  endloop
endfacet
facet normal 1.0 2.4708506155911893e-16 2.0543238187570633e-14
  outer loop
    vertex 31.06569809023575 2.1809012513984998 0.28715762288428137
    vertex 31.065698090235806 0.8887225563761298 1.6394152581497566e-13
    vertex 31.06569809023575 2.199722556376119 1.6393925159249893e-13
  endloop
endfacet
facet normal 1.0 2.4708506155911893e-16 2.0543238187570633e-14
  outer loop
    vertex 31.065698090235806 0.8887225563761298 1.6394152581497566e-13
    vertex 31.06569809023575 2.1809012513984998 0.28715762288428137
    vertex 31.065698090235806 0.8811170381374466 0.11603778488380358
  endloop
endfacet
facet normal 1.0 2.4708506155911893e-16 2.0543238187570633e-14
  outer loop
    vertex 31.065698090235806 0.8811170381374466 0.11603778488380358
    vertex 31.06569809023575 2.1809012513984998 0.28715762288428137
    vertex 31.065698090235806 0.8584306159471128 0.23009013109631848
  endloop
endfacet
facet normal 1.0 2.4708506155911893e-16 2.0543238187570633e-14
  outer loop
    vertex 31.065698090235806 0.8584306159471128 0.23009013109631848
    vertex 31.06569809023575 2.1809012513984998 0.28715762288428137
    vertex 31.065698090235806 0.8210514607786605 0.34020557137272833
  endloop
endfacet
facet normal 1.0 2.4708506155911893e-16 2.0543238187570633e-14
  outer loop
    vertex 31.065698090235806 0.8210514607786605 0.34020557137272833
    vertex 31.06569809023575 2.1809012513984998 0.28715762288428137
    vertex 31.06569809023575 2.1247593742120667 0.5694018992257261
  endloop
endfacet
facet normal 1.0 2.4708506155911893e-16 2.0543238187570633e-14
  outer loop
    vertex 31.065698090235806 0.8210514607786605 0.34020557137272833
    vertex 31.06569809023575 2.1247593742120667 0.5694018992257261
    vertex 31.065698090235806 0.7696191403404935 0.4445000000001728
  endloop
endfacet
facet normal 1.0 2.4708506155911893e-16 2.0543238187570633e-14
  outer loop
    vertex 31.065698090235806 0.7696191403404935 0.4445000000001728
    vertex 31.06569809023575 2.1247593742120667 0.5694018992257261
    vertex 31.065698090235806 0.7050136758950378 0.5411889103889131
  endloop
endfacet
facet normal 1.0 2.4708506155911893e-16 2.0543238187570633e-14
  outer loop
    vertex 31.065698090235806 0.7050136758950378 0.5411889103889131
    vertex 31.06569809023575 2.1247593742120667 0.5694018992257261
    vertex 31.065698090235806 0.6283404848509679 0.6286179284749948
  endloop
endfacet
facet normal 1.0 2.4708506155911893e-16 2.0543238187570633e-14
  outer loop
    vertex 31.065698090235806 0.6283404848509679 0.6286179284749948
    vertex 31.06569809023575 2.1247593742120667 0.5694018992257261
    vertex 31.06569809023575 2.03225752790095 0.8419035512033495
  endloop
endfacet
facet normal 1.0 2.4708506155911893e-16 2.0543238187570633e-14
  outer loop
    vertex 31.065698090235806 0.6283404848509679 0.6286179284749948
    vertex 31.06569809023575 2.03225752790095 0.8419035512033495
    vertex 31.065698090235806 0.5409114667648843 0.7052911195190786
  endloop
endfacet
facet normal 1.0 2.4708506155911893e-16 2.0543238187570633e-14
  outer loop
    vertex 31.065698090235806 0.5409114667648843 0.7052911195190786
    vertex 31.06569809023575 2.03225752790095 0.8419035512033495
    vertex 31.065698090235806 0.44422255637612984 0.7698965839645341
  endloop
endfacet
facet normal 1.0 2.4708506155911893e-16 2.0543238187570633e-14
  outer loop
    vertex 31.065698090235806 0.44422255637612984 0.7698965839645341
    vertex 31.06569809023575 2.03225752790095 0.8419035512033495
    vertex 31.065698090235806 0.33992812774869174 0.8213289044027083
  endloop
endfacet
facet normal 1.0 2.4708506155911893e-16 2.0543238187570633e-14
  outer loop
    vertex 31.065698090235806 0.33992812774869174 0.8213289044027083
    vertex 31.06569809023575 2.03225752790095 0.8419035512033495
    vertex 31.065698090235806 0.22981268747226724 0.8587080595711393
  endloop
endfacet
facet normal 1.0 2.4708506155911893e-16 2.0543238187570633e-14
  outer loop
    vertex 31.065698090235806 0.22981268747226724 0.8587080595711393
    vertex 31.06569809023575 2.03225752790095 0.8419035512033495
    vertex 31.06569809023575 1.9049784447018845 1.1000000000001802
  endloop
endfacet
facet normal 1.0 2.4708506155911893e-16 2.0543238187570633e-14
  outer loop
    vertex 31.065698090235806 0.22981268747226724 0.8587080595711393
    vertex 31.06569809023575 1.9049784447018845 1.1000000000001802
    vertex 31.065698090235806 0.11576034125975256 0.8813944817615015
  endloop
endfacet
facet normal 1.0 2.4708506155911893e-16 2.0543238187570633e-14
  outer loop
    vertex 31.065698090235806 0.11576034125975256 0.8813944817615015
    vertex 31.06569809023575 1.9049784447018845 1.1000000000001802
    vertex 31.065698090235806 -0.0002774436238701716 0.8890000000001632
  endloop
endfacet
facet normal 1.0 2.4708506155911893e-16 2.0543238187570633e-14
  outer loop
    vertex 31.065698090235806 -0.0002774436238701716 0.8890000000001632
    vertex 31.06569809023575 1.9049784447018845 1.1000000000001802
    vertex 31.06569809023576 -1.9055333319496248 1.1000000000001442
  endloop
endfacet
facet normal 1.0 2.4708506155911893e-16 2.0543238187570633e-14
  outer loop
    vertex 31.06569809023576 -1.9055333319496248 1.1000000000001442
    vertex 31.06569809023575 1.9049784447018845 1.1000000000001802
    vertex 31.06569809023576 -1.7456547922645826 1.3392751438193629
  endloop
endfacet
facet normal 1.0 2.4708506155911893e-16 2.0543238187570633e-14
  outer loop
    vertex 31.06569809023576 -1.7456547922645826 1.3392751438193629
    vertex 31.06569809023575 1.9049784447018845 1.1000000000001802
    vertex 31.06569809023576 1.7450999050168354 1.3392751438193629
  endloop
endfacet
facet normal 1.0 2.4708506155911893e-16 2.0543238187570633e-14
  outer loop
    vertex 31.06569809023576 -1.7456547922645826 1.3392751438193629
    vertex 31.06569809023576 1.7450999050168354 1.3392751438193629
    vertex 31.06569809023576 1.5553574749865282 1.555634918610548
  endloop
endfacet
facet normal 1.0 2.4708506155911893e-16 2.0543238187570633e-14
  outer loop
    vertex 31.06569809023576 -1.7456547922645826 1.3392751438193629
    vertex 31.06569809023576 1.5553574749865282 1.555634918610548
    vertex 31.06569809023576 -1.5559123622342677 1.555634918610548
  endloop
endfacet
facet normal 1.0 2.4708506155911893e-16 2.0543238187570633e-14
  outer loop
    vertex 31.06569809023576 -1.5559123622342677 1.555634918610548
    vertex 31.06569809023576 1.5553574749865282 1.555634918610548
    vertex 31.06569809023576 1.3389977001953068 1.7453773486408741
  endloop
endfacet
facet normal 1.0 2.4708506155911893e-16 2.0543238187570633e-14
  outer loop
    vertex 31.06569809023576 -1.5559123622342677 1.555634918610548
    vertex 31.06569809023576 1.3389977001953068 1.7453773486408741
    vertex 31.06569809023576 -1.339552587443046 1.7453773486408741
  endloop
endfacet
facet normal 1.0 2.4708506155911893e-16 2.0543238187570633e-14
  outer loop
    vertex 31.06569809023576 -1.339552587443046 1.7453773486408741
    vertex 31.06569809023576 1.3389977001953068 1.7453773486408741
    vertex 31.06569809023576 1.099722556376125 1.9052558883259232
  endloop
endfacet
facet normal 1.0 2.4708506155911893e-16 2.0543238187570633e-14
  outer loop
    vertex 31.06569809023576 -1.339552587443046 1.7453773486408741
    vertex 31.06569809023576 1.099722556376125 1.9052558883259232
    vertex 31.06569809023576 -1.1002774436238654 1.9052558883259232
  endloop
endfacet
facet normal 1.0 2.4708506155911893e-16 2.0543238187570633e-14
  outer loop
    vertex 31.06569809023576 -1.1002774436238654 1.9052558883259232
    vertex 31.06569809023576 1.099722556376125 1.9052558883259232
    vertex 31.06569809023576 0.8416261075793229 2.032534971524989
  endloop
endfacet
facet normal 1.0 2.4708506155911893e-16 2.0543238187570633e-14
  outer loop
    vertex 31.06569809023576 -1.1002774436238654 1.9052558883259232
    vertex 31.06569809023576 0.8416261075793229 2.032534971524989
    vertex 31.06569809023576 -0.8421809948270622 2.032534971524989
  endloop
endfacet
facet normal 1.0 2.4708506155911893e-16 2.0543238187570633e-14
  outer loop
    vertex 31.06569809023576 -0.8421809948270622 2.032534971524989
    vertex 31.06569809023576 0.8416261075793229 2.032534971524989
    vertex 31.06569809023576 0.5691244556016688 2.125036817836101
  endloop
endfacet
facet normal 1.0 2.4708506155911893e-16 2.0543238187570633e-14
  outer loop
    vertex 31.06569809023576 -0.8421809948270622 2.032534971524989
    vertex 31.06569809023576 0.5691244556016688 2.125036817836101
    vertex 31.06569809023576 -0.5696793428494148 2.125036817836101
  endloop
endfacet
facet normal 1.0 2.4708506155911893e-16 2.0543238187570633e-14
  outer loop
    vertex 31.06569809023576 -0.5696793428494148 2.125036817836101
    vertex 31.06569809023576 0.5691244556016688 2.125036817836101
    vertex 31.06569809023576 0.28688017926024456 2.181178695022542
  endloop
endfacet
facet normal 1.0 2.4708506155911893e-16 2.0543238187570633e-14
  outer loop
    vertex 31.06569809023576 -0.5696793428494148 2.125036817836101
    vertex 31.06569809023576 0.28688017926024456 2.181178695022542
    vertex 31.06569809023576 -0.28743506650798456 2.181178695022542
  endloop
endfacet
facet normal 1.0 2.4708506155911893e-16 2.0543238187570633e-14
  outer loop
    vertex 31.06569809023576 -0.28743506650798456 2.181178695022542
    vertex 31.06569809023576 0.28688017926024456 2.181178695022542
    vertex 31.06569809023576 -0.0002774436238701716 2.2000000000001534
  endloop
endfacet
facet normal 1.0 2.4708506155911893e-16 2.0543238187570633e-14
  outer loop
    vertex 31.065698090235806 -0.8816719253851862 0.11603778488380358
    vertex 31.06569809023575 -2.2002774436238597 1.639468843757932e-13
    vertex 31.065698090235806 -0.8892774436238688 1.6394461015331593e-13
  endloop
endfacet
facet normal 1.0 2.4708506155911893e-16 2.0543238187570633e-14
  outer loop
    vertex 31.06569809023575 -2.2002774436238597 1.639468843757932e-13
    vertex 31.065698090235806 -0.8816719253851862 0.11603778488380358
    vertex 31.06569809023575 -2.181456138646235 0.28715762288428137
  endloop
endfacet
facet normal 1.0 2.4708506155911893e-16 2.0543238187570633e-14
  outer loop
    vertex 31.06569809023575 -2.181456138646235 0.28715762288428137
    vertex 31.065698090235806 -0.8816719253851862 0.11603778488380358
    vertex 31.065698090235806 -0.8589855031948525 0.23009013109631848
  endloop
endfacet
facet normal 1.0 2.4708506155911893e-16 2.0543238187570633e-14
  outer loop
    vertex 31.06569809023575 -2.181456138646235 0.28715762288428137
    vertex 31.065698090235806 -0.8589855031948525 0.23009013109631848
    vertex 31.065698090235806 -0.8216063480263994 0.34020557137272833
  endloop
endfacet
facet normal 1.0 2.4708506155911893e-16 2.0543238187570633e-14
  outer loop
    vertex 31.06569809023575 -2.181456138646235 0.28715762288428137
    vertex 31.065698090235806 -0.8216063480263994 0.34020557137272833
    vertex 31.06569809023575 -2.1253142614598066 0.5694018992257261
  endloop
endfacet
facet normal 1.0 2.4708506155911893e-16 2.0543238187570633e-14
  outer loop
    vertex 31.06569809023575 -2.1253142614598066 0.5694018992257261
    vertex 31.065698090235806 -0.8216063480263994 0.34020557137272833
    vertex 31.065698090235806 -0.7701740275882327 0.4445000000001728
  endloop
endfacet
facet normal 1.0 2.4708506155911893e-16 2.0543238187570633e-14
  outer loop
    vertex 31.06569809023575 -2.1253142614598066 0.5694018992257261
    vertex 31.065698090235806 -0.7701740275882327 0.4445000000001728
    vertex 31.065698090235806 -0.7055685631427777 0.5411889103889131
  endloop
endfacet
facet normal 1.0 2.4708506155911893e-16 2.0543238187570633e-14
  outer loop
    vertex 31.06569809023575 -2.1253142614598066 0.5694018992257261
    vertex 31.065698090235806 -0.7055685631427777 0.5411889103889131
    vertex 31.065698090235806 -0.6288953720987086 0.6286179284749948
  endloop
endfacet
facet normal 1.0 2.4708506155911893e-16 2.0543238187570633e-14
  outer loop
    vertex 31.06569809023575 -2.1253142614598066 0.5694018992257261
    vertex 31.065698090235806 -0.6288953720987086 0.6286179284749948
    vertex 31.06569809023575 -2.0328124151486904 0.8419035512033495
  endloop
endfacet
facet normal 1.0 2.4708506155911893e-16 2.0543238187570633e-14
  outer loop
    vertex 31.06569809023575 -2.0328124151486904 0.8419035512033495
    vertex 31.065698090235806 -0.6288953720987086 0.6286179284749948
    vertex 31.065698090235806 -0.5414663540126239 0.7052911195190786
  endloop
endfacet
facet normal 1.0 2.4708506155911893e-16 2.0543238187570633e-14
  outer loop
    vertex 31.06569809023575 -2.0328124151486904 0.8419035512033495
    vertex 31.065698090235806 -0.5414663540126239 0.7052911195190786
    vertex 31.065698090235806 -0.44477744362386984 0.7698965839645341
  endloop
endfacet
facet normal 1.0 2.4708506155911893e-16 2.0543238187570633e-14
  outer loop
    vertex 31.06569809023575 -2.0328124151486904 0.8419035512033495
    vertex 31.065698090235806 -0.44477744362386984 0.7698965839645341
    vertex 31.065698090235806 -0.3404830149964324 0.8213289044027083
  endloop
endfacet
facet normal 1.0 2.4708506155911893e-16 2.0543238187570633e-14
  outer loop
    vertex 31.06569809023575 -2.0328124151486904 0.8419035512033495
    vertex 31.065698090235806 -0.3404830149964324 0.8213289044027083
    vertex 31.065698090235806 -0.23036757472001462 0.8587080595711393
  endloop
endfacet
facet normal 1.0 2.4708506155911893e-16 2.0543238187570633e-14
  outer loop
    vertex 31.06569809023575 -2.0328124151486904 0.8419035512033495
    vertex 31.065698090235806 -0.23036757472001462 0.8587080595711393
    vertex 31.06569809023576 -1.9055333319496248 1.1000000000001442
  endloop
endfacet
facet normal 1.0 2.4708506155911893e-16 2.0543238187570633e-14
  outer loop
    vertex 31.06569809023576 -1.9055333319496248 1.1000000000001442
    vertex 31.065698090235806 -0.23036757472001462 0.8587080595711393
    vertex 31.065698090235806 -0.11631522850749959 0.8813944817615015
  endloop
endfacet
facet normal 1.0 2.4708506155911893e-16 2.0543238187570633e-14
  outer loop
    vertex 31.06569809023576 -1.9055333319496248 1.1000000000001442
    vertex 31.065698090235806 -0.11631522850749959 0.8813944817615015
    vertex 31.065698090235806 -0.0002774436238701716 0.8890000000001632
  endloop
endfacet
facet normal 1.0 2.4708506155913244e-16 -4.416283646770504e-15
  outer loop
    vertex -15.445066909764218 0.8811170381374349 0.116037784884009
    vertex -15.445066909764218 -0.8892774436238808 3.693493410216018e-13
    vertex -15.445066909764218 0.8887225563761182 3.6934625668326154e-13
  endloop
endfacet
facet normal 1.0 2.4708506155913244e-16 -4.416283646770504e-15
  outer loop
    vertex -15.445066909764218 -0.8892774436238808 3.693493410216018e-13
    vertex -15.445066909764218 0.8811170381374349 0.116037784884009
    vertex -15.445066909764217 -0.8816719253851981 0.116037784884009
  endloop
endfacet
facet normal 1.0 2.4708506155913244e-16 -4.416283646770504e-15
  outer loop
    vertex -15.445066909764217 -0.8816719253851981 0.116037784884009
    vertex -15.445066909764218 0.8811170381374349 0.116037784884009
    vertex -15.445066909764217 0.8584306159471011 0.23009013109652388
  endloop
endfacet
facet normal 1.0 2.4708506155913244e-16 -4.416283646770504e-15
  outer loop
    vertex -15.445066909764217 -0.8816719253851981 0.116037784884009
    vertex -15.445066909764217 0.8584306159471011 0.23009013109652388
    vertex -15.445066909764217 -0.8589855031948644 0.23009013109652388
  endloop
endfacet
facet normal 1.0 2.4708506155913244e-16 -4.416283646770504e-15
  outer loop
    vertex -15.445066909764217 -0.8589855031948644 0.23009013109652388
    vertex -15.445066909764217 0.8584306159471011 0.23009013109652388
    vertex -15.445066909764217 0.8210514607786489 0.34020557137293367
  endloop
endfacet
facet normal 1.0 2.4708506155913244e-16 -4.416283646770504e-15
  outer loop
    vertex -15.445066909764217 -0.8589855031948644 0.23009013109652388
    vertex -15.445066909764217 0.8210514607786489 0.34020557137293367
    vertex -15.445066909764217 -0.8216063480264114 0.34020557137293367
  endloop
endfacet
facet normal 1.0 2.4708506155913244e-16 -4.416283646770504e-15
  outer loop
    vertex -15.445066909764217 -0.8216063480264114 0.34020557137293367
    vertex -15.445066909764217 0.8210514607786489 0.34020557137293367
    vertex -15.445066909764217 0.7696191403404818 0.44450000000037826
  endloop
endfacet
facet normal 1.0 2.4708506155913244e-16 -4.416283646770504e-15
  outer loop
    vertex -15.445066909764217 -0.8216063480264114 0.34020557137293367
    vertex -15.445066909764217 0.7696191403404818 0.44450000000037826
    vertex -15.445066909764217 -0.7701740275882447 0.44450000000037826
  endloop
endfacet
facet normal 1.0 2.4708506155913244e-16 -4.416283646770504e-15
  outer loop
    vertex -15.445066909764217 -0.7701740275882447 0.44450000000037826
    vertex -15.445066909764217 0.7696191403404818 0.44450000000037826
    vertex -15.445066909764217 0.7050136758950262 0.5411889103891186
  endloop
endfacet
facet normal 1.0 2.4708506155913244e-16 -4.416283646770504e-15
  outer loop
    vertex -15.445066909764217 -0.7701740275882447 0.44450000000037826
    vertex -15.445066909764217 0.7050136758950262 0.5411889103891186
    vertex -15.445066909764217 -0.7055685631427897 0.5411889103891186
  endloop
endfacet
facet normal 1.0 2.4708506155913244e-16 -4.416283646770504e-15
  outer loop
    vertex -15.445066909764217 -0.7055685631427897 0.5411889103891186
    vertex -15.445066909764217 0.7050136758950262 0.5411889103891186
    vertex -15.445066909764217 0.6283404848509563 0.6286179284752001
  endloop
endfacet
facet normal 1.0 2.4708506155913244e-16 -4.416283646770504e-15
  outer loop
    vertex -15.445066909764217 -0.7055685631427897 0.5411889103891186
    vertex -15.445066909764217 0.6283404848509563 0.6286179284752001
    vertex -15.445066909764217 -0.6288953720987206 0.6286179284752001
  endloop
endfacet
facet normal 1.0 2.4708506155913244e-16 -4.416283646770504e-15
  outer loop
    vertex -15.445066909764217 -0.6288953720987206 0.6286179284752001
    vertex -15.445066909764217 0.6283404848509563 0.6286179284752001
    vertex -15.445066909764217 0.5409114667648727 0.705291119519284
  endloop
endfacet
facet normal 1.0 2.4708506155913244e-16 -4.416283646770504e-15
  outer loop
    vertex -15.445066909764217 -0.6288953720987206 0.6286179284752001
    vertex -15.445066909764217 0.5409114667648727 0.705291119519284
    vertex -15.445066909764217 -0.5414663540126359 0.705291119519284
  endloop
endfacet
facet normal 1.0 2.4708506155913244e-16 -4.416283646770504e-15
  outer loop
    vertex -15.445066909764217 -0.5414663540126359 0.705291119519284
    vertex -15.445066909764217 0.5409114667648727 0.705291119519284
    vertex -15.445066909764217 0.44422255637611824 0.7698965839647395
  endloop
endfacet
facet normal 1.0 2.4708506155913244e-16 -4.416283646770504e-15
  outer loop
    vertex -15.445066909764217 -0.5414663540126359 0.705291119519284
    vertex -15.445066909764217 0.44422255637611824 0.7698965839647395
    vertex -15.445066909764213 -0.44477744362388183 0.7698965839647395
  endloop
endfacet
facet normal 1.0 2.4708506155913244e-16 -4.416283646770504e-15
  outer loop
    vertex -15.445066909764213 -0.44477744362388183 0.7698965839647395
    vertex -15.445066909764217 0.44422255637611824 0.7698965839647395
    vertex -15.445066909764213 0.3399281277486801 0.8213289044029138
  endloop
endfacet
facet normal 1.0 2.4708506155913244e-16 -4.416283646770504e-15
  outer loop
    vertex -15.445066909764213 -0.44477744362388183 0.7698965839647395
    vertex -15.445066909764213 0.3399281277486801 0.8213289044029138
    vertex -15.445066909764213 -0.3404830149964444 0.8213289044029138
  endloop
endfacet
facet normal 1.0 2.4708506155913244e-16 -4.416283646770504e-15
  outer loop
    vertex -15.445066909764213 -0.3404830149964444 0.8213289044029138
    vertex -15.445066909764213 0.3399281277486801 0.8213289044029138
    vertex -15.445066909764213 0.22981268747225558 0.8587080595713448
  endloop
endfacet
facet normal 1.0 2.4708506155913244e-16 -4.416283646770504e-15
  outer loop
    vertex -15.445066909764213 -0.3404830149964444 0.8213289044029138
    vertex -15.445066909764213 0.22981268747225558 0.8587080595713448
    vertex -15.445066909764213 -0.23036757472002625 0.8587080595713448
  endloop
endfacet
facet normal 1.0 2.4708506155913244e-16 -4.416283646770504e-15
  outer loop
    vertex -15.445066909764213 -0.23036757472002625 0.8587080595713448
    vertex -15.445066909764213 0.22981268747225558 0.8587080595713448
    vertex -15.445066909764213 0.11576034125974093 0.881394481761707
  endloop
endfacet
facet normal 1.0 2.4708506155913244e-16 -4.416283646770504e-15
  outer loop
    vertex -15.445066909764213 -0.23036757472002625 0.8587080595713448
    vertex -15.445066909764213 0.11576034125974093 0.881394481761707
    vertex -15.445066909764213 -0.11631522850751123 0.881394481761707
  endloop
endfacet
facet normal 1.0 2.4708506155913244e-16 -4.416283646770504e-15
  outer loop
    vertex -15.445066909764213 -0.11631522850751123 0.881394481761707
    vertex -15.445066909764213 0.11576034125974093 0.881394481761707
    vertex -15.445066909764213 -0.00027744362388180396 0.8890000000003687
  endloop
endfacet
facet normal 6.817143809583858e-16 -0.9973195807609011 -0.07316866700234799
  outer loop
    vertex -21.235592922211538 -2.4126248337285907 4.5087272395680204e-13
    vertex -31.06569809023574 -2.4228789766970324 0.13976826400360157
    vertex -31.06569809023575 -2.412624833728599 4.879685317354744e-13
  endloop
endfacet
facet normal 9.045786187661786e-16 -0.9983378009865134 0.057633628390141835
  outer loop
    vertex -31.06569809023574 -2.4228789766970324 0.13976826400360157
    vertex -21.235592922211538 -2.4126248337285907 4.5087272395680204e-13
    vertex -21.257141521230718 -2.4228789766970227 0.13976826400355868
  endloop
endfacet
facet normal -7.00721426231175e-10 0.9792369416344466 0.20271904730048232
  outer loop
    vertex -31.06569809023574 2.3762620161060384 0.49185876335172823
    vertex -15.681437062554119 2.412347432786357 4.141533710649139e-13
    vertex -31.06569809023575 2.412347390104573 4.43291892659328e-13
  endloop
endfacet
facet normal -1.3894554861755685e-09 0.9973195776100816 0.07316870994932607
  outer loop
    vertex -15.681437062554119 2.412347432786357 4.141533710649139e-13
    vertex -31.06569809023574 2.3762620161060384 0.49185876335172823
    vertex -15.747840292768927 2.3762620161060286 0.4918587633516542
  endloop
endfacet
facet normal -0.6715561188795077 0.7395514989618824 -0.0455626994231593
  outer loop
    vertex -15.239938293255397 2.845075234320935 0.6543793153130987
    vertex -15.747840292768927 2.3762620161060286 0.4918587633516542
    vertex -15.834433536673687 2.307409806466174 0.6896197692907391
  endloop
endfacet
facet normal -0.6715095901787012 0.7401032957499268 -0.03635906926929512
  outer loop
    vertex -15.747840292768927 2.3762620161060286 0.4918587633516542
    vertex -15.239938293255397 2.845075234320935 0.6543793153130987
    vertex -15.681437062554119 2.412347432786357 4.141533710649139e-13
  endloop
endfacet
facet normal -0.6715095901787012 0.7401032957499268 -0.03635906926929512
  outer loop
    vertex -15.681437062554119 2.412347432786357 4.141533710649139e-13
    vertex -15.239938293255397 2.845075234320935 0.6543793153130987
    vertex -15.119240626276035 2.9224387410221104 3.679037874605957e-13
  endloop
endfacet
facet normal -0.6715095901787012 0.7401032957499268 -0.03635906926929512
  outer loop
    vertex -15.119240626276035 2.9224387410221104 3.679037874605957e-13
    vertex -15.239938293255397 2.845075234320935 0.6543793153130987
    vertex -15.16664956492496 2.89817002181282 0.38158784795099665
  endloop
endfacet
facet normal -1.0 -3.7066197264305404e-16 6.654934967849828e-15
  outer loop
    vertex -31.06569809023575 -2.412624833728599 4.879685317354744e-13
    vertex -31.06569809023574 2.3762620161060384 0.49185876335172823
    vertex -31.06569809023575 2.412347390104573 4.43291892659328e-13
  endloop
endfacet
facet normal -1.0 -3.7066197264305404e-16 6.654934967849828e-15
  outer loop
    vertex -31.06569809023574 2.3762620161060384 0.49185876335172823
    vertex -31.06569809023575 -2.412624833728599 4.879685317354744e-13
    vertex -31.06569809023574 -2.4228789766970324 0.13976826400360157
  endloop
endfacet
facet normal -1.0 -3.7066197264305404e-16 6.654934967849828e-15
  outer loop
    vertex -31.06569809023574 2.3762620161060384 0.49185876335172823
    vertex -31.06569809023574 -2.4228789766970324 0.13976826400360157
    vertex -31.06569809023574 -2.304126314962235 0.7620558108919204
  endloop
endfacet
facet normal -1.0 -3.7066197264305404e-16 6.654934967849828e-15
  outer loop
    vertex -31.06569809023574 2.3762620161060384 0.49185876335172823
    vertex -31.06569809023574 -2.304126314962235 0.7620558108919204
    vertex -31.06569809023574 2.1679611190389485 1.0901517616080503
  endloop
endfacet
facet normal -1.0 -3.7066197264305404e-16 6.654934967849828e-15
  outer loop
    vertex -31.06569809023574 2.1679611190389485 1.0901517616080503
    vertex -31.06569809023574 -2.304126314962235 0.7620558108919204
    vertex -31.06569809023573 -2.028361925913659 1.3324051160015462
  endloop
endfacet
facet normal -1.0 -3.7066197264305404e-16 6.654934967849828e-15
  outer loop
    vertex -31.06569809023574 2.1679611190389485 1.0901517616080503
    vertex -31.06569809023573 -2.028361925913659 1.3324051160015462
    vertex -31.06569809023573 1.8119082804225026 1.6141461810388635
  endloop
endfacet
facet normal -1.0 -3.7066197264305404e-16 6.654934967849828e-15
  outer loop
    vertex -31.06569809023573 1.8119082804225026 1.6141461810388635
    vertex -31.06569809023573 -2.028361925913659 1.3324051160015462
    vertex -31.06569809023573 -1.6144284560736288 1.8118813858338603
  endloop
endfacet
facet normal -1.0 -3.7066197264305404e-16 6.654934967849828e-15
  outer loop
    vertex -31.06569809023573 1.8119082804225026 1.6141461810388635
    vertex -31.06569809023573 -1.6144284560736288 1.8118813858338603
    vertex -31.06569809023573 1.3323679128033006 2.028132667901751
  endloop
endfacet
facet normal -1.0 -3.7066197264305404e-16 6.654934967849828e-15
  outer loop
    vertex -31.06569809023573 1.3323679128033006 2.028132667901751
    vertex -31.06569809023573 -1.6144284560736288 1.8118813858338603
    vertex -31.06569809023573 -1.0881378268824864 2.168237484288474
  endloop
endfacet
facet normal -1.0 -3.7066197264305404e-16 6.654934967849828e-15
  outer loop
    vertex -31.06569809023573 1.3323679128033006 2.028132667901751
    vertex -31.06569809023573 -1.0881378268824864 2.168237484288474
    vertex -31.06569809023573 0.7620198997564722 2.303898727261929
  endloop
endfacet
facet normal -1.0 -3.7066197264305404e-16 6.654934967849828e-15
  outer loop
    vertex -31.06569809023573 0.7620198997564722 2.303898727261929
    vertex -31.06569809023573 -1.0881378268824864 2.168237484288474
    vertex -31.065698090235728 -0.4920462550840877 2.376300708217843
  endloop
endfacet
facet normal -1.0 -3.7066197264305404e-16 6.654934967849828e-15
  outer loop
    vertex -31.06569809023573 0.7620198997564722 2.303898727261929
    vertex -31.065698090235728 -0.4920462550840877 2.376300708217843
    vertex -31.065698090235728 0.13973251582664156 2.42265135789897
  endloop
endfacet
facet normal -4.80692404652267e-15 -2.264990112215451e-15 -1.0
  outer loop
    vertex 31.06569809023575 -2.2002774436238597 1.639468843757932e-13
    vertex -15.445066909764218 -0.8892774436238808 3.693493410216018e-13
    vertex 31.065698090235806 -0.8892774436238688 1.6394461015331593e-13
  endloop
endfacet
facet normal -4.80692404652267e-15 -2.264990112215451e-15 -1.0
  outer loop
    vertex -22.01375615105639 -3.030881136481956 3.9836225098884007e-13
    vertex -21.235592922211538 -2.4126248337285907 4.5087272395680204e-13
    vertex 31.06569809023575 -2.2002774436238597 1.639468843757932e-13
  endloop
endfacet
facet normal -4.80692404652267e-15 -2.264990112215451e-15 -1.0
  outer loop
    vertex 31.06569809023575 2.199722556376119 1.6393925159249893e-13
    vertex -15.681437062554119 2.412347432786357 4.141533710649139e-13
    vertex -15.119240626276035 2.9224387410221104 3.679037874605957e-13
  endloop
endfacet
facet normal -4.80692404652267e-15 -2.264990112215451e-15 -1.0
  outer loop
    vertex -15.681437062554119 2.412347432786357 4.141533710649139e-13
    vertex 31.06569809023575 2.199722556376119 1.6393925159249893e-13
    vertex -31.06569809023575 2.412347390104573 4.43291892659328e-13
  endloop
endfacet
facet normal -4.80692404652267e-15 -2.264990112215451e-15 -1.0
  outer loop
    vertex -31.06569809023575 2.412347390104573 4.43291892659328e-13
    vertex 31.06569809023575 2.199722556376119 1.6393925159249893e-13
    vertex -15.445066909764218 0.8887225563761182 3.6934625668326154e-13
  endloop
endfacet
facet normal -4.80692404652267e-15 -2.264990112215451e-15 -1.0
  outer loop
    vertex -31.06569809023575 2.412347390104573 4.43291892659328e-13
    vertex -15.445066909764218 0.8887225563761182 3.6934625668326154e-13
    vertex -31.06569809023575 -2.412624833728599 4.879685317354744e-13
  endloop
endfacet
facet normal -4.80692404652267e-15 -2.264990112215451e-15 -1.0
  outer loop
    vertex -15.445066909764218 0.8887225563761182 3.6934625668326154e-13
    vertex 31.06569809023575 2.199722556376119 1.6393925159249893e-13
    vertex 31.065698090235806 0.8887225563761298 1.6394152581497566e-13
  endloop
endfacet
facet normal -4.80692404652267e-15 -2.264990112215451e-15 -1.0
  outer loop
    vertex -31.06569809023575 -2.412624833728599 4.879685317354744e-13
    vertex -15.445066909764218 0.8887225563761182 3.6934625668326154e-13
    vertex -15.445066909764218 -0.8892774436238808 3.693493410216018e-13
  endloop
endfacet
facet normal -4.80692404652267e-15 -2.264990112215451e-15 -1.0
  outer loop
    vertex -31.06569809023575 -2.412624833728599 4.879685317354744e-13
    vertex -15.445066909764218 -0.8892774436238808 3.693493410216018e-13
    vertex 31.06569809023575 -2.2002774436238597 1.639468843757932e-13
  endloop
endfacet
facet normal -4.80692404652267e-15 -2.264990112215451e-15 -1.0
  outer loop
    vertex -31.06569809023575 -2.412624833728599 4.879685317354744e-13
    vertex 31.06569809023575 -2.2002774436238597 1.639468843757932e-13
    vertex -21.235592922211538 -2.4126248337285907 4.5087272395680204e-13
  endloop
endfacet
facet normal -8.214119027816257e-16 0.9914448613738119 -0.13052619222003972
  outer loop
    vertex 31.065698090235806 -0.8816719253851862 0.11603778488380358
    vertex -15.445066909764218 -0.8892774436238808 3.693493410216018e-13
    vertex -15.445066909764217 -0.8816719253851981 0.116037784884009
  endloop
endfacet
facet normal -5.353948035424232e-16 0.9978589232386038 -0.06540312923013955
  outer loop
    vertex -15.445066909764218 -0.8892774436238808 3.693493410216018e-13
    vertex 31.065698090235806 -0.8816719253851862 0.11603778488380358
    vertex 31.065698090235806 -0.8892774436238688 1.6394461015331593e-13
  endloop
endfacet
facet normal -1.3816841586093526e-15 0.9659258262890603 -0.2588190451025506
  outer loop
    vertex 31.065698090235806 -0.8589855031948525 0.23009013109631848
    vertex -15.445066909764217 -0.8816719253851981 0.116037784884009
    vertex -15.445066909764217 -0.8589855031948644 0.23009013109652388
  endloop
endfacet
facet normal -8.214119027816257e-16 0.9914448613738119 -0.13052619222003972
  outer loop
    vertex -15.445066909764217 -0.8816719253851981 0.116037784884009
    vertex 31.065698090235806 -0.8589855031948525 0.23009013109631848
    vertex 31.065698090235806 -0.8816719253851862 0.11603778488380358
  endloop
endfacet
facet normal -1.918315415407807e-15 0.92387953251128 -0.38268343236510616
  outer loop
    vertex 31.065698090235806 -0.8216063480263994 0.34020557137272833
    vertex -15.445066909764217 -0.8589855031948644 0.23009013109652388
    vertex -15.445066909764217 -0.8216063480264114 0.34020557137293367
  endloop
endfacet
facet normal -1.3816841586093526e-15 0.9659258262890603 -0.2588190451025506
  outer loop
    vertex -15.445066909764217 -0.8589855031948644 0.23009013109652388
    vertex 31.065698090235806 -0.8216063480263994 0.34020557137272833
    vertex 31.065698090235806 -0.8589855031948525 0.23009013109631848
  endloop
endfacet
facet normal -2.4221237635911005e-15 0.8660254037844399 -0.4999999999999978
  outer loop
    vertex 31.065698090235806 -0.7701740275882327 0.4445000000001728
    vertex -15.445066909764217 -0.8216063480264114 0.34020557137293367
    vertex -15.445066909764217 -0.7701740275882447 0.44450000000037826
  endloop
endfacet
facet normal -1.918315415407807e-15 0.92387953251128 -0.38268343236510616
  outer loop
    vertex -15.445066909764217 -0.8216063480264114 0.34020557137293367
    vertex 31.065698090235806 -0.7701740275882327 0.4445000000001728
    vertex 31.065698090235806 -0.8216063480263994 0.34020557137272833
  endloop
endfacet
facet normal -2.884488902640006e-15 0.7933533402912094 -0.6087614290087542
  outer loop
    vertex 31.065698090235806 -0.7055685631427777 0.5411889103889131
    vertex -15.445066909764217 -0.7701740275882447 0.44450000000037826
    vertex -15.445066909764217 -0.7055685631427897 0.5411889103891186
  endloop
endfacet
facet normal -2.4221237635911005e-15 0.8660254037844399 -0.4999999999999978
  outer loop
    vertex -15.445066909764217 -0.7701740275882447 0.44450000000037826
    vertex 31.065698090235806 -0.7055685631427777 0.5411889103889131
    vertex 31.065698090235806 -0.7701740275882327 0.4445000000001728
  endloop
endfacet
facet normal -3.297499636832912e-15 0.7071067811865779 -0.7071067811865172
  outer loop
    vertex 31.065698090235806 -0.6288953720987086 0.6286179284749948
    vertex -15.445066909764217 -0.7055685631427897 0.5411889103891186
    vertex -15.445066909764217 -0.6288953720987206 0.6286179284752001
  endloop
endfacet
facet normal -2.884488902640006e-15 0.7933533402912094 -0.6087614290087542
  outer loop
    vertex -15.445066909764217 -0.7055685631427897 0.5411889103891186
    vertex 31.065698090235806 -0.6288953720987086 0.6286179284749948
    vertex 31.065698090235806 -0.7055685631427777 0.5411889103889131
  endloop
endfacet
facet normal -3.297499636832912e-15 0.7071067811865779 -0.7071067811865172
  outer loop
    vertex 31.065698090235806 -0.6288953720987086 0.6286179284749948
    vertex -15.445066909764217 -0.5414663540126359 0.705291119519284
    vertex 31.065698090235806 -0.5414663540126239 0.7052911195190786
  endloop
endfacet
facet normal -3.654089238000251e-15 0.6087614290087617 -0.7933533402912036
  outer loop
    vertex -15.445066909764217 -0.5414663540126359 0.705291119519284
    vertex 31.065698090235806 -0.6288953720987086 0.6286179284749948
    vertex -15.445066909764217 -0.6288953720987206 0.6286179284752001
  endloop
endfacet
facet normal -3.654089238000251e-15 0.6087614290087617 -0.7933533402912036
  outer loop
    vertex 31.065698090235806 -0.5414663540126239 0.7052911195190786
    vertex -15.445066909764213 -0.44477744362388183 0.7698965839647395
    vertex 31.065698090235806 -0.44477744362386984 0.7698965839645341
  endloop
endfacet
facet normal -3.948156359200588e-15 0.5000000000000057 -0.8660254037844354
  outer loop
    vertex -15.445066909764213 -0.44477744362388183 0.7698965839647395
    vertex 31.065698090235806 -0.5414663540126239 0.7052911195190786
    vertex -15.445066909764217 -0.5414663540126359 0.705291119519284
  endloop
endfacet
facet normal -3.948156359200588e-15 0.5000000000000057 -0.8660254037844354
  outer loop
    vertex 31.065698090235806 -0.44477744362386984 0.7698965839645341
    vertex -15.445066909764213 -0.3404830149964444 0.8213289044029138
    vertex 31.065698090235806 -0.3404830149964324 0.8213289044027083
  endloop
endfacet
facet normal -4.174669430459215e-15 0.38268343236505253 -0.9238795325113023
  outer loop
    vertex -15.445066909764213 -0.3404830149964444 0.8213289044029138
    vertex 31.065698090235806 -0.44477744362386984 0.7698965839645341
    vertex -15.445066909764213 -0.44477744362388183 0.7698965839647395
  endloop
endfacet
facet normal -4.174669430459215e-15 0.38268343236505253 -0.9238795325113023
  outer loop
    vertex 31.065698090235806 -0.3404830149964324 0.8213289044027083
    vertex -15.445066909764213 -0.23036757472002625 0.8587080595713448
    vertex 31.065698090235806 -0.23036757472001462 0.8587080595711393
  endloop
endfacet
facet normal -4.329752750325474e-15 0.25881904510257103 -0.9659258262890548
  outer loop
    vertex -15.445066909764213 -0.23036757472002625 0.8587080595713448
    vertex 31.065698090235806 -0.3404830149964324 0.8213289044027083
    vertex -15.445066909764213 -0.3404830149964444 0.8213289044029138
  endloop
endfacet
facet normal -4.329752750325474e-15 0.25881904510257103 -0.9659258262890548
  outer loop
    vertex 31.065698090235806 -0.23036757472001462 0.8587080595711393
    vertex -15.445066909764213 -0.11631522850751123 0.881394481761707
    vertex 31.065698090235806 -0.11631522850749959 0.8813944817615015
  endloop
endfacet
facet normal -4.410752800199559e-15 0.1305261922200728 -0.9914448613738076
  outer loop
    vertex -15.445066909764213 -0.11631522850751123 0.881394481761707
    vertex 31.065698090235806 -0.23036757472001462 0.8587080595711393
    vertex -15.445066909764213 -0.23036757472002625 0.8587080595713448
  endloop
endfacet
facet normal -4.410752800199559e-15 0.1305261922200728 -0.9914448613738076
  outer loop
    vertex 31.065698090235806 -0.11631522850749959 0.8813944817615015
    vertex -15.445066909764213 -0.00027744362388180396 0.8890000000003687
    vertex 31.065698090235806 -0.0002774436238701716 0.8890000000001632
  endloop
endfacet
facet normal -4.416283646770489e-15 -2.029261987359154e-15 -1.0
  outer loop
    vertex -15.445066909764213 -0.00027744362388180396 0.8890000000003687
    vertex 31.065698090235806 -0.11631522850749959 0.8813944817615015
    vertex -15.445066909764213 -0.11631522850751123 0.881394481761707
  endloop
endfacet
facet normal -4.416283646770489e-15 -2.029261987359154e-15 -1.0
  outer loop
    vertex 31.065698090235806 -0.0002774436238701716 0.8890000000001632
    vertex -15.445066909764213 0.11576034125974093 0.881394481761707
    vertex 31.065698090235806 0.11576034125975256 0.8813944817615015
  endloop
endfacet
facet normal -4.346250655720002e-15 -0.13052619222007483 -0.9914448613738074
  outer loop
    vertex -15.445066909764213 0.11576034125974093 0.881394481761707
    vertex 31.065698090235806 -0.0002774436238701716 0.8890000000001632
    vertex -15.445066909764213 -0.00027744362388180396 0.8890000000003687
  endloop
endfacet
facet normal -4.346250655720002e-15 -0.13052619222007483 -0.9914448613738074
  outer loop
    vertex 31.065698090235806 0.11576034125975256 0.8813944817615015
    vertex -15.445066909764213 0.22981268747225558 0.8587080595713448
    vertex 31.065698090235806 0.22981268747226724 0.8587080595711393
  endloop
endfacet
facet normal -4.2018521109417885e-15 -0.25881904510256193 -0.9659258262890572
  outer loop
    vertex -15.445066909764213 0.22981268747225558 0.8587080595713448
    vertex 31.065698090235806 0.11576034125975256 0.8813944817615015
    vertex -15.445066909764213 0.11576034125974093 0.881394481761707
  endloop
endfacet
facet normal -4.2018521109417885e-15 -0.25881904510256193 -0.9659258262890572
  outer loop
    vertex 31.065698090235806 0.22981268747226724 0.8587080595711393
    vertex -15.445066909764213 0.3399281277486801 0.8213289044029138
    vertex 31.065698090235806 0.33992812774869174 0.8213289044027083
  endloop
endfacet
facet normal -3.985558711572062e-15 -0.3826834323650431 -0.9238795325113061
  outer loop
    vertex -15.445066909764213 0.3399281277486801 0.8213289044029138
    vertex 31.065698090235806 0.22981268747226724 0.8587080595711393
    vertex -15.445066909764213 0.22981268747225558 0.8587080595713448
  endloop
endfacet
facet normal -3.985558711572062e-15 -0.3826834323650431 -0.9238795325113061
  outer loop
    vertex 31.065698090235806 0.33992812774869174 0.8213289044027083
    vertex -15.445066909764217 0.44422255637611824 0.7698965839647395
    vertex 31.065698090235806 0.44422255637612984 0.7698965839645341
  endloop
endfacet
facet normal -3.7010712976414374e-15 -0.5000000000000048 -0.8660254037844358
  outer loop
    vertex -15.445066909764217 0.44422255637611824 0.7698965839647395
    vertex 31.065698090235806 0.33992812774869174 0.8213289044027083
    vertex -15.445066909764213 0.3399281277486801 0.8213289044029138
  endloop
endfacet
facet normal -3.7010712976414374e-15 -0.5000000000000048 -0.8660254037844358
  outer loop
    vertex 31.065698090235806 0.44422255637612984 0.7698965839645341
    vertex -15.445066909764217 0.5409114667648727 0.705291119519284
    vertex 31.065698090235806 0.5409114667648843 0.7052911195190786
  endloop
endfacet
facet normal -3.353257527677316e-15 -0.6087614290087627 -0.7933533402912027
  outer loop
    vertex -15.445066909764217 0.5409114667648727 0.705291119519284
    vertex 31.065698090235806 0.44422255637612984 0.7698965839645341
    vertex -15.445066909764217 0.44422255637611824 0.7698965839647395
  endloop
endfacet
facet normal -3.353257527677316e-15 -0.6087614290087627 -0.7933533402912027
  outer loop
    vertex 31.065698090235806 0.5409114667648843 0.7052911195190786
    vertex -15.445066909764217 0.6283404848509563 0.6286179284752001
    vertex 31.065698090235806 0.6283404848509679 0.6286179284749948
  endloop
endfacet
facet normal -2.9480685917161626e-15 -0.7071067811865767 -0.7071067811865185
  outer loop
    vertex -15.445066909764217 0.6283404848509563 0.6286179284752001
    vertex 31.065698090235806 0.5409114667648843 0.7052911195190786
    vertex -15.445066909764217 0.5409114667648727 0.705291119519284
  endloop
endfacet
facet normal -2.4924373847919955e-15 -0.7933533402912076 -0.6087614290087565
  outer loop
    vertex 31.065698090235806 0.7050136758950378 0.5411889103889131
    vertex -15.445066909764217 0.6283404848509563 0.6286179284752001
    vertex -15.445066909764217 0.7050136758950262 0.5411889103891186
  endloop
endfacet
facet normal -2.9480685917161626e-15 -0.7071067811865767 -0.7071067811865185
  outer loop
    vertex -15.445066909764217 0.6283404848509563 0.6286179284752001
    vertex 31.065698090235806 0.7050136758950378 0.5411889103889131
    vertex 31.065698090235806 0.6283404848509679 0.6286179284749948
  endloop
endfacet
facet normal -1.994159883179376e-15 -0.866025403784439 -0.49999999999999933
  outer loop
    vertex 31.065698090235806 0.7696191403404935 0.4445000000001728
    vertex -15.445066909764217 0.7050136758950262 0.5411889103891186
    vertex -15.445066909764217 0.7696191403404818 0.44450000000037826
  endloop
endfacet
facet normal -2.4924373847919955e-15 -0.7933533402912076 -0.6087614290087565
  outer loop
    vertex -15.445066909764217 0.7050136758950262 0.5411889103891186
    vertex 31.065698090235806 0.7696191403404935 0.4445000000001728
    vertex 31.065698090235806 0.7050136758950378 0.5411889103889131
  endloop
endfacet
facet normal -1.4617617530802234e-15 -0.9238795325112807 -0.3826834323651045
  outer loop
    vertex 31.065698090235806 0.8210514607786605 0.34020557137272833
    vertex -15.445066909764217 0.7696191403404818 0.44450000000037826
    vertex -15.445066909764217 0.8210514607786489 0.34020557137293367
  endloop
endfacet
facet normal -1.994159883179376e-15 -0.866025403784439 -0.49999999999999933
  outer loop
    vertex -15.445066909764217 0.7696191403404818 0.44450000000037826
    vertex 31.065698090235806 0.8210514607786605 0.34020557137272833
    vertex 31.065698090235806 0.7696191403404935 0.4445000000001728
  endloop
endfacet
facet normal -9.04352474108935e-16 -0.9659258262890609 -0.25881904510254883
  outer loop
    vertex 31.065698090235806 0.8584306159471128 0.23009013109631848
    vertex -15.445066909764217 0.8210514607786489 0.34020557137293367
    vertex -15.445066909764217 0.8584306159471011 0.23009013109652388
  endloop
endfacet
facet normal -1.4617617530802234e-15 -0.9238795325112807 -0.3826834323651045
  outer loop
    vertex -15.445066909764217 0.8210514607786489 0.34020557137293367
    vertex 31.065698090235806 0.8584306159471128 0.23009013109631848
    vertex 31.065698090235806 0.8210514607786605 0.34020557137272833
  endloop
endfacet
facet normal -3.314694735715578e-16 -0.9914448613738115 -0.1305261922200435
  outer loop
    vertex 31.065698090235806 0.8811170381374466 0.11603778488380358
    vertex -15.445066909764217 0.8584306159471011 0.23009013109652388
    vertex -15.445066909764218 0.8811170381374349 0.116037784884009
  endloop
endfacet
facet normal -9.04352474108935e-16 -0.9659258262890609 -0.25881904510254883
  outer loop
    vertex -15.445066909764217 0.8584306159471011 0.23009013109652388
    vertex 31.065698090235806 0.8811170381374466 0.11603778488380358
    vertex 31.065698090235806 0.8584306159471128 0.23009013109631848
  endloop
endfacet
facet normal -4.2282736590960025e-17 -0.9978589232386035 -0.06540312923014341
  outer loop
    vertex 31.065698090235806 0.8887225563761298 1.6394152581497566e-13
    vertex -15.445066909764218 0.8811170381374349 0.116037784884009
    vertex -15.445066909764218 0.8887225563761182 3.6934625668326154e-13
  endloop
endfacet
facet normal -3.314694735715578e-16 -0.9914448613738115 -0.1305261922200435
  outer loop
    vertex -15.445066909764218 0.8811170381374349 0.116037784884009
    vertex 31.065698090235806 0.8887225563761298 1.6394152581497566e-13
    vertex 31.065698090235806 0.8811170381374466 0.11603778488380358
  endloop
endfacet
facet normal 3.1192055742425922e-15 -0.8133415393240189 0.5817865075867913
  outer loop
    vertex -20.869301079053134 -2.028361925913652 1.3324051160015005
    vertex -31.06569809023573 -1.6144284560736288 1.8118813858338603
    vertex -31.06569809023573 -2.028361925913659 1.3324051160015462
  endloop
endfacet
facet normal 3.745367391103786e-15 -0.6645663268402323 0.7472292802280177
  outer loop
    vertex -31.06569809023573 -1.6144284560736288 1.8118813858338603
    vertex -20.869301079053134 -2.028361925913652 1.3324051160015005
    vertex -20.429179168888158 -1.6144284560736226 1.811881385833808
  endloop
endfacet
facet normal 2.2803361060298333e-15 0.9129788150272548 0.408006964782992
  outer loop
    vertex -16.023916291783035 2.1679611190389387 1.0901517616079792
    vertex -31.06569809023574 2.3762620161060384 0.49185876335172823
    vertex -31.06569809023574 2.1679611190389485 1.0901517616080503
  endloop
endfacet
facet normal -7.00721426231175e-10 0.9792369416344466 0.20271904730048232
  outer loop
    vertex -31.06569809023574 2.3762620161060384 0.49185876335172823
    vertex -16.023916291783035 2.1679611190389387 1.0901517616079792
    vertex -15.747840292768927 2.3762620161060286 0.4918587633516542
  endloop
endfacet
facet normal -8.283016534576208e-10 0.9838215382895149 0.17915127908461187
  outer loop
    vertex -15.747840292768927 2.3762620161060286 0.4918587633516542
    vertex -16.023916291783035 2.1679611190389387 1.0901517616079792
    vertex -15.834433536673687 2.307409806466174 0.6896197692907391
  endloop
endfacet
facet normal -0.6715095965462995 0.7385174042984851 -0.060554977453997266
  outer loop
    vertex -17.312042869802838 1.1313288818511023 2.7319393382291763
    vertex -17.606436239195418 0.826012348919685 2.2729580644895484
    vertex -17.60643623919554 0.8712827541348795 2.82506762767836
  endloop
endfacet
facet normal -0.6612407640656974 0.7476645961699626 -0.0613050044598259
  outer loop
    vertex -17.606436239195418 0.826012348919685 2.2729580644895484
    vertex -17.312042869802838 1.1313288818511023 2.7319393382291763
    vertex -17.027475350086135 1.3323679128033066 2.028132667901681
  endloop
endfacet
facet normal -0.6715095965462995 0.7385174042984851 -0.060554977453997266
  outer loop
    vertex -17.027475350086135 1.3323679128033066 2.028132667901681
    vertex -17.312042869802838 1.1313288818511023 2.7319393382291763
    vertex -16.917999311610707 1.475154414414637 2.555522941228819
  endloop
endfacet
facet normal -0.6715095965462995 0.7385174042984851 -0.060554977453997266
  outer loop
    vertex -17.027475350086135 1.3323679128033066 2.028132667901681
    vertex -16.917999311610707 1.475154414414637 2.555522941228819
    vertex -16.46275095615472 1.8119082804225146 1.6141461810388025
  endloop
endfacet
facet normal -0.6715095965462995 0.7385174042984851 -0.060554977453997266
  outer loop
    vertex -16.46275095615472 1.8119082804225146 1.6141461810388025
    vertex -16.917999311610707 1.475154414414637 2.555522941228819
    vertex -16.549146844711107 1.7925808483509762 2.336498416010732
  endloop
endfacet
facet normal -0.6715095965462995 0.7385174042984851 -0.060554977453997266
  outer loop
    vertex -16.46275095615472 1.8119082804225146 1.6141461810388025
    vertex -16.549146844711107 1.7925808483509762 2.336498416010732
    vertex -16.21147571485804 2.078480598903629 2.078758042527888
  endloop
endfacet
facet normal -0.6715095965462995 0.7385174042984851 -0.060554977453997266
  outer loop
    vertex -16.46275095615472 1.8119082804225146 1.6141461810388025
    vertex -16.21147571485804 2.078480598903629 2.078758042527888
    vertex -16.023916291783035 2.1679611190389387 1.0901517616079792
  endloop
endfacet
facet normal -0.6715095965462995 0.7385174042984851 -0.060554977453997266
  outer loop
    vertex -16.023916291783035 2.1679611190389387 1.0901517616079792
    vertex -16.21147571485804 2.078480598903629 2.078758042527888
    vertex -15.91040686404626 2.328291246695708 1.786773599445469
  endloop
endfacet
facet normal -0.6715095965462995 0.7385174042984851 -0.060554977453997266
  outer loop
    vertex -16.023916291783035 2.1679611190389387 1.0901517616079792
    vertex -15.91040686404626 2.328291246695708 1.786773599445469
    vertex -15.834433536673687 2.307409806466174 0.6896197692907391
  endloop
endfacet
facet normal -0.6715527010764296 0.7390756105621326 -0.0527656284825876
  outer loop
    vertex -15.834433536673687 2.307409806466174 0.6896197692907391
    vertex -15.91040686404626 2.328291246695708 1.786773599445469
    vertex -15.650723091287793 2.5380715819285715 1.465516493200358
  endloop
endfacet
facet normal -0.6715527010764296 0.7390756105621326 -0.0527656284825876
  outer loop
    vertex -15.834433536673687 2.307409806466174 0.6896197692907391
    vertex -15.650723091287793 2.5380715819285715 1.465516493200358
    vertex -15.239938293255397 2.845075234320935 0.6543793153130987
  endloop
endfacet
facet normal -0.6715561188795077 0.7395514989618824 -0.0455626994231593
  outer loop
    vertex -15.239938293255397 2.845075234320935 0.6543793153130987
    vertex -15.650723091287793 2.5380715819285715 1.465516493200358
    vertex -15.4365116044687 2.704547053547163 1.1203749905676443
  endloop
endfacet
facet normal -0.6715561188795077 0.7395514989618824 -0.0455626994231593
  outer loop
    vertex -15.239938293255397 2.845075234320935 0.6543793153130987
    vertex -15.4365116044687 2.704547053547163 1.1203749905676443
    vertex -15.271117395670323 2.825145235452897 0.7570697251355637
  endloop
endfacet
facet normal -0.6343097189163471 0.7714238044931464 -0.050561787444517274
  outer loop
    vertex -21.162171897635748 -2.3055589524938034 0.9919697156115294
    vertex -21.147186745951128 -2.304126314962238 0.7620558108918766
    vertex -21.162171897635766 -2.3212663283728707 0.6722387344312649
  endloop
endfacet
facet normal -0.6469057932404821 0.7616513788513523 -0.03741753286544116
  outer loop
    vertex -21.147186745951128 -2.304126314962238 0.7620558108918766
    vertex -21.162171897635748 -2.3055589524938034 0.9919697156115294
    vertex -21.03326214552669 -2.196421346316586 0.9848164589793086
  endloop
endfacet
facet normal 9.058842124037776e-16 -0.9982918225212482 0.05842462740321778
  outer loop
    vertex -21.257141521230718 -2.4228789766970227 0.13976826400355868
    vertex -31.06569809023574 -2.304126314962235 0.7620558108919204
    vertex -31.06569809023574 -2.4228789766970324 0.13976826400360157
  endloop
endfacet
facet normal 1.7305822873167005e-15 -0.9494040968107451 0.3140570982464386
  outer loop
    vertex -31.06569809023574 -2.304126314962235 0.7620558108919204
    vertex -21.257141521230718 -2.4228789766970227 0.13976826400355868
    vertex -21.147186745951128 -2.304126314962238 0.7620558108918766
  endloop
endfacet
facet normal 1.8361551805331977e-15 -0.9419566001936889 0.33573466212404535
  outer loop
    vertex -21.147186745951128 -2.304126314962238 0.7620558108918766
    vertex -21.257141521230718 -2.4228789766970227 0.13976826400355868
    vertex -21.162171897635766 -2.3212663283728707 0.6722387344312649
  endloop
endfacet
facet normal 3.970043381126347e-15 -0.4488792750822842 0.8935924106669679
  outer loop
    vertex -31.06569809023573 -1.0881378268824864 2.168237484288474
    vertex -20.429179168888158 -1.6144284560736226 1.811881385833808
    vertex -19.84519362494526 -1.088137826882478 2.1682374842884307
  endloop
endfacet
facet normal 3.823523589811886e-15 -0.6228519203469135 0.7823397505688702
  outer loop
    vertex -20.429179168888158 -1.6144284560736226 1.811881385833808
    vertex -31.06569809023573 -1.0881378268824864 2.168237484288474
    vertex -31.06569809023573 -1.6144284560736288 1.8118813858338603
  endloop
endfacet
facet normal 3.5800883563384505e-15 0.5490810867914664 0.8357690830174935
  outer loop
    vertex -31.06569809023573 1.3323679128033006 2.028132667901751
    vertex -17.606436239195418 0.826012348919685 2.2729580644895484
    vertex -17.027475350086135 1.3323679128033066 2.028132667901681
  endloop
endfacet
facet normal 4.0954239076030626e-15 0.43529386599537795 0.9002884261317581
  outer loop
    vertex -17.606436239195418 0.826012348919685 2.2729580644895484
    vertex -31.06569809023573 1.3323679128033006 2.028132667901751
    vertex -31.06569809023573 0.7620198997564722 2.303898727261929
  endloop
endfacet
facet normal 4.0954239076030626e-15 0.43529386599537795 0.9002884261317581
  outer loop
    vertex -17.606436239195418 0.826012348919685 2.2729580644895484
    vertex -31.06569809023573 0.7620198997564722 2.303898727261929
    vertex -17.684598560652898 0.7620198997564733 2.3038987272618674
  endloop
endfacet
facet normal 2.6300002376131866e-15 0.7840464370699283 0.620702170543934
  outer loop
    vertex -16.46275095615472 1.8119082804225146 1.6141461810388025
    vertex -31.06569809023574 2.1679611190389485 1.0901517616080503
    vertex -31.06569809023573 1.8119082804225026 1.6141461810388635
  endloop
endfacet
facet normal 2.3339387926818723e-15 0.8934027114076606 0.4492567141951696
  outer loop
    vertex -31.06569809023574 2.1679611190389485 1.0901517616080503
    vertex -16.46275095615472 1.8119082804225146 1.6141461810388025
    vertex -16.023916291783035 2.1679611190389387 1.0901517616079792
  endloop
endfacet
facet normal 4.447212523117668e-15 0.05763362839011551 0.9983378009865147
  outer loop
    vertex -31.065698090235728 0.13973251582664156 2.42265135789897
    vertex -17.684598560652898 0.7620198997564733 2.3038987272618674
    vertex -31.06569809023573 0.7620198997564722 2.303898727261929
  endloop
endfacet
facet normal 4.2064752424077705e-15 0.3812905845540457 0.9244552396576234
  outer loop
    vertex -17.684598560652898 0.7620198997564733 2.3038987272618674
    vertex -31.065698090235728 0.13973251582664156 2.42265135789897
    vertex -18.42713459290039 0.1397325158266363 2.4226513578989146
  endloop
endfacet
facet normal 2.7554661976190644e-15 0.7466845584515336 0.6651782995333193
  outer loop
    vertex -31.06569809023573 1.8119082804225026 1.6141461810388635
    vertex -17.027475350086135 1.3323679128033066 2.028132667901681
    vertex -16.46275095615472 1.8119082804225146 1.6141461810388025
  endloop
endfacet
facet normal 3.2989245462733248e-15 0.6025548800569916 0.7980774502011094
  outer loop
    vertex -17.027475350086135 1.3323679128033066 2.028132667901681
    vertex -31.06569809023573 1.8119082804225026 1.6141461810388635
    vertex -31.06569809023573 1.3323679128033006 2.028132667901751
  endloop
endfacet
facet normal 1.8361551805331977e-15 -0.9419566001936889 0.33573466212404535
  outer loop
    vertex -21.147186745951128 -2.304126314962238 0.7620558108918766
    vertex -31.06569809023573 -2.028361925913659 1.3324051160015462
    vertex -31.06569809023574 -2.304126314962235 0.7620558108919204
  endloop
endfacet
facet normal 2.94054186730397e-15 -0.8357692177787864 0.5490808816681161
  outer loop
    vertex -31.06569809023573 -2.028361925913659 1.3324051160015462
    vertex -21.147186745951128 -2.304126314962238 0.7620558108918766
    vertex -20.869301079053134 -2.028361925913652 1.3324051160015005
  endloop
endfacet
facet normal 3.1192055742425922e-15 -0.8133415393240189 0.5817865075867913
  outer loop
    vertex -20.869301079053134 -2.028361925913652 1.3324051160015005
    vertex -21.147186745951128 -2.304126314962238 0.7620558108918766
    vertex -21.03326214552669 -2.196421346316586 0.9848164589793086
  endloop
endfacet
facet normal 4.187948843810883e-15 -0.20310627276695692 0.9791566993912232
  outer loop
    vertex -31.065698090235728 -0.4920462550840877 2.376300708217843
    vertex -18.42713459290039 0.1397325158266363 2.4226513578989146
    vertex -31.065698090235728 0.13973251582664156 2.42265135789897
  endloop
endfacet
facet normal 4.471037568673354e-15 0.129424827390732 0.991589236556589
  outer loop
    vertex -18.42713459290039 0.1397325158266363 2.4226513578989146
    vertex -31.065698090235728 -0.4920462550840877 2.376300708217843
    vertex -19.164916804141058 -0.4920462550840905 2.3763007082177916
  endloop
endfacet
facet normal -0.6398915388817503 0.7658949033796499 -0.06279980449509497
  outer loop
    vertex -21.162171897635712 -2.2200152393006176 2.035245160138577
    vertex -21.03326214552669 -2.196421346316586 0.9848164589793086
    vertex -21.162171897635748 -2.3055589524938034 0.9919697156115294
  endloop
endfacet
facet normal -0.6469496793957694 0.7605943896630908 -0.05433494955129385
  outer loop
    vertex -21.03326214552669 -2.196421346316586 0.9848164589793086
    vertex -21.162171897635712 -2.2200152393006176 2.035245160138577
    vertex -21.069058399245737 -2.1327847614151443 2.1325073177915836
  endloop
endfacet
facet normal -0.6469496793957694 0.7605943896630908 -0.05433494955129385
  outer loop
    vertex -21.03326214552669 -2.196421346316586 0.9848164589793086
    vertex -21.069058399245737 -2.1327847614151443 2.1325073177915836
    vertex -20.74160650917514 -1.8330734704736673 2.3885462854336112
  endloop
endfacet
facet normal -0.6469496793957694 0.7605943896630908 -0.05433494955129385
  outer loop
    vertex -21.03326214552669 -2.196421346316586 0.9848164589793086
    vertex -20.74160650917514 -1.8330734704736673 2.3885462854336112
    vertex -20.869301079053134 -2.028361925913652 1.3324051160015005
  endloop
endfacet
facet normal -0.6469057932408356 0.7600193138073584 -0.06231803359571994
  outer loop
    vertex -20.869301079053134 -2.028361925913652 1.3324051160015005
    vertex -20.74160650917514 -1.8330734704736673 2.3885462854336112
    vertex -20.429179168888158 -1.6144284560736226 1.811881385833808
  endloop
endfacet
facet normal -0.6469057932408356 0.7600193138073584 -0.06231803359571994
  outer loop
    vertex -20.429179168888158 -1.6144284560736226 1.811881385833808
    vertex -20.74160650917514 -1.8330734704736673 2.3885462854336112
    vertex -20.374122756678442 -1.5027505451857261 2.6023597489111006
  endloop
endfacet
facet normal -0.6469057932408356 0.7600193138073584 -0.06231803359571994
  outer loop
    vertex -20.429179168888158 -1.6144284560736226 1.811881385833808
    vertex -20.374122756678442 -1.5027505451857261 2.6023597489111006
    vertex -19.84519362494526 -1.088137826882478 2.1682374842884307
  endloop
endfacet
facet normal -0.6469057932408356 0.7600193138073584 -0.06231803359571994
  outer loop
    vertex -19.84519362494526 -1.088137826882478 2.1682374842884307
    vertex -20.374122756678442 -1.5027505451857261 2.6023597489111006
    vertex -19.97332105673599 -1.1478204304344708 2.770413842164613
  endloop
endfacet
facet normal -0.6469057932408356 0.7600193138073584 -0.06231803359571994
  outer loop
    vertex -19.84519362494526 -1.088137826882478 2.1682374842884307
    vertex -19.97332105673599 -1.1478204304344708 2.770413842164613
    vertex -19.546439692455102 -0.7746625675858512 2.89004462725195
  endloop
endfacet
facet normal -0.6469057932408356 0.7600193138073584 -0.06231803359571994
  outer loop
    vertex -19.84519362494526 -1.088137826882478 2.1682374842884307
    vertex -19.546439692455102 -0.7746625675858512 2.89004462725195
    vertex -19.164916804141058 -0.4920462550840905 2.3763007082177916
  endloop
endfacet
facet normal -0.6469057932408356 0.7600193138073584 -0.06231803359571994
  outer loop
    vertex -19.164916804141058 -0.4920462550840905 2.3763007082177916
    vertex -19.546439692455102 -0.7746625675858512 2.89004462725195
    vertex -19.101091535142167 -0.38990144503854957 2.9594881111619307
  endloop
endfacet
facet normal -0.6469057932408356 0.7600193138073584 -0.06231803359571994
  outer loop
    vertex -19.164916804141058 -0.4920462550840905 2.3763007082177916
    vertex -19.101091535142167 -0.38990144503854957 2.9594881111619307
    vertex -18.42713459290039 0.1397325158266363 2.4226513578989146
  endloop
endfacet
facet normal -0.6469057932408356 0.7600193138073584 -0.06231803359571994
  outer loop
    vertex -18.42713459290039 0.1397325158266363 2.4226513578989146
    vertex -19.101091535142167 -0.38990144503854957 2.9594881111619307
    vertex -18.645113258638364 -0.00027744362391106115 2.977890128516947
  endloop
endfacet
facet normal -0.6469057932408356 0.7600193138073584 -0.06231803359571994
  outer loop
    vertex -18.42713459290039 0.1397325158266363 2.4226513578989146
    vertex -18.645113258638364 -0.00027744362391106115 2.977890128516947
    vertex -18.186417439490892 0.3874783229920535 2.945297459006123
  endloop
endfacet
facet normal -0.6469057932408356 0.7600193138073584 -0.06231803359571994
  outer loop
    vertex -18.42713459290039 0.1397325158266363 2.4226513578989146
    vertex -18.186417439490892 0.3874783229920535 2.945297459006123
    vertex -17.684598560652898 0.7620198997564733 2.3038987272618674
  endloop
endfacet
facet normal -0.6469057932408356 0.7600193138073584 -0.06231803359571994
  outer loop
    vertex -17.684598560652898 0.7620198997564733 2.3038987272618674
    vertex -18.186417439490892 0.3874783229920535 2.945297459006123
    vertex -17.732850862671462 0.7667624998545075 2.8626320404963868
  endloop
endfacet
facet normal -0.6469057932408356 0.7600193138073584 -0.06231803359571994
  outer loop
    vertex -17.684598560652898 0.7620198997564733 2.3038987272618674
    vertex -17.732850862671462 0.7667624998545075 2.8626320404963868
    vertex -17.60643623919554 0.8712827541348795 2.82506762767836
  endloop
endfacet
facet normal -0.6469057932408356 0.7600193138073584 -0.06231803359571994
  outer loop
    vertex -17.684598560652898 0.7620198997564733 2.3038987272618674
    vertex -17.60643623919554 0.8712827541348795 2.82506762767836
    vertex -17.606436239195418 0.826012348919685 2.2729580644895484
  endloop
endfacet
facet normal 3.970043381126347e-15 -0.4488792750822842 0.8935924106669679
  outer loop
    vertex -31.06569809023573 -1.0881378268824864 2.168237484288474
    vertex -19.164916804141058 -0.4920462550840905 2.3763007082177916
    vertex -31.065698090235728 -0.4920462550840877 2.376300708217843
  endloop
endfacet
facet normal 4.28066867824019e-15 -0.13431031995523296 0.9909393210250175
  outer loop
    vertex -19.164916804141058 -0.4920462550840905 2.3763007082177916
    vertex -31.06569809023573 -1.0881378268824864 2.168237484288474
    vertex -19.84519362494526 -1.088137826882478 2.1682374842884307
  endloop
endfacet
facet normal 0.015646393291294542 -0.7932562240810274 0.6086869091196927
  outer loop
    vertex 31.06569809023576 -1.7456547922645826 1.3392751438193629
    vertex -21.162171897635712 -2.2200152393006176 2.035245160138577
    vertex -21.36364664460299 -2.3965461322131425 1.8387216352038522
  endloop
endfacet
facet normal 0.015612901337059136 -0.7517481666476838 0.659265448248037
  outer loop
    vertex -21.162171897635712 -2.2200152393006176 2.035245160138577
    vertex 31.06569809023576 -1.7456547922645826 1.3392751438193629
    vertex -21.069058399245737 -2.1327847614151443 2.1325073177915836
  endloop
endfacet
facet normal 0.01564023712177947 -0.7265758188345856 0.6869082635022133
  outer loop
    vertex -21.069058399245737 -2.1327847614151443 2.1325073177915836
    vertex 31.06569809023576 -1.7456547922645826 1.3392751438193629
    vertex 31.06569809023576 -1.5559123622342677 1.555634918610548
  endloop
endfacet
facet normal 0.0156390136692423 -0.6327633610857982 0.7741872836199628
  outer loop
    vertex -20.74160650917514 -1.8330734704736673 2.3885462854336112
    vertex 31.06569809023576 -1.5559123622342677 1.555634918610548
    vertex 31.06569809023576 -1.339552587443046 1.7453773486408741
  endloop
endfacet
facet normal 0.01564639329129486 -0.707020222616377 0.7070202226163429
  outer loop
    vertex 31.06569809023576 -1.5559123622342677 1.555634918610548
    vertex -20.74160650917514 -1.8330734704736673 2.3885462854336112
    vertex -21.069058399245737 -2.1327847614151443 2.1325073177915836
  endloop
endfacet
facet normal 0.015646393291294487 -0.9237664382891845 0.38263658720447596
  outer loop
    vertex 31.06569809023575 -2.0328124151486904 0.8419035512033495
    vertex -21.60988707995057 -2.619384064244908 1.5121419124522604
    vertex -21.79660406514671 -2.7970507658405976 1.1584614409458396
  endloop
endfacet
facet normal 0.015642733553263833 -0.8765306293320434 0.48109184230222996
  outer loop
    vertex -21.60988707995057 -2.619384064244908 1.5121419124522604
    vertex 31.06569809023575 -2.0328124151486904 0.8419035512033495
    vertex 31.06569809023576 -1.9055333319496248 1.1000000000001442
  endloop
endfacet
facet normal 0.01563630908627687 -0.16601604216800986 0.9859990768662149
  outer loop
    vertex -19.101091535142167 -0.38990144503854957 2.9594881111619307
    vertex 31.06569809023576 -0.5696793428494148 2.125036817836101
    vertex 31.06569809023576 -0.28743506650798456 2.181178695022542
  endloop
endfacet
facet normal 0.015646393291296832 -0.2587873624669646 0.9658075850832638
  outer loop
    vertex 31.06569809023576 -0.5696793428494148 2.125036817836101
    vertex -19.101091535142167 -0.38990144503854957 2.9594881111619307
    vertex -19.546439692455102 -0.7746625675858512 2.89004462725195
  endloop
endfacet
facet normal 0.015637221719168128 -0.414041002826698 0.9101239065507333
  outer loop
    vertex -19.97332105673599 -1.1478204304344708 2.770413842164613
    vertex 31.06569809023576 -1.1002774436238654 1.9052558883259232
    vertex 31.06569809023576 -0.8421809948270622 2.032534971524989
  endloop
endfacet
facet normal 0.01564639329129656 -0.49993879384805806 0.8659193916195218
  outer loop
    vertex 31.06569809023576 -1.1002774436238654 1.9052558883259232
    vertex -19.97332105673599 -1.1478204304344708 2.770413842164613
    vertex -20.374122756678442 -1.5027505451857261 2.6023597489111006
  endloop
endfacet
facet normal 0.015638005580850295 -0.5280239823365949 0.8490854649909256
  outer loop
    vertex -20.374122756678442 -1.5027505451857261 2.6023597489111006
    vertex 31.06569809023576 -1.339552587443046 1.7453773486408741
    vertex 31.06569809023576 -1.1002774436238654 1.9052558883259232
  endloop
endfacet
facet normal 0.015646393291295854 -0.6086869091197279 0.7932562240810005
  outer loop
    vertex 31.06569809023576 -1.339552587443046 1.7453773486408741
    vertex -20.374122756678442 -1.5027505451857261 2.6023597489111006
    vertex -20.74160650917514 -1.8330734704736673 2.3885462854336112
  endloop
endfacet
facet normal 0.015646393291294615 -0.8659193916195049 0.4999387938480876
  outer loop
    vertex 31.06569809023576 -1.9055333319496248 1.1000000000001442
    vertex -21.36364664460299 -2.3965461322131425 1.8387216352038522
    vertex -21.60988707995057 -2.619384064244908 1.5121419124522604
  endloop
endfacet
facet normal 0.015641101198029018 -0.8088197833336185 0.5878485468566469
  outer loop
    vertex -21.36364664460299 -2.3965461322131425 1.8387216352038522
    vertex 31.06569809023576 -1.9055333319496248 1.1000000000001442
    vertex 31.06569809023576 -1.7456547922645826 1.3392751438193629
  endloop
endfacet
facet normal 0.01563665868666489 -0.29269408895861065 0.9560782735706348
  outer loop
    vertex -19.546439692455102 -0.7746625675858512 2.89004462725195
    vertex 31.06569809023576 -0.8421809948270622 2.032534971524989
    vertex 31.06569809023576 -0.5696793428494148 2.125036817836101
  endloop
endfacet
facet normal 0.015646393291296634 -0.38263658720444943 0.9237664382891954
  outer loop
    vertex 31.06569809023576 -0.8421809948270622 2.032534971524989
    vertex -19.546439692455102 -0.7746625675858512 2.89004462725195
    vertex -19.97332105673599 -1.1478204304344708 2.770413842164613
  endloop
endfacet
facet normal 0.015636165766927904 -0.0361511531922419 0.9992240011343704
  outer loop
    vertex -18.645113258638364 -0.00027744362391106115 2.977890128516947
    vertex 31.06569809023576 -0.28743506650798456 2.181178695022542
    vertex 31.06569809023576 -0.0002774436238701716 2.2000000000001534
  endloop
endfacet
facet normal 0.01564639329129748 -0.1305102142081878 0.9913234963241347
  outer loop
    vertex 31.06569809023576 -0.28743506650798456 2.181178695022542
    vertex -18.645113258638364 -0.00027744362391106115 2.977890128516947
    vertex -19.101091535142167 -0.38990144503854957 2.9594881111619307
  endloop
endfacet
facet normal 0.01564639329129356 -0.9658075850832831 0.25878736246689255
  outer loop
    vertex 31.06569809023575 -2.1253142614598066 0.5694018992257261
    vertex -21.839961424708637 -2.8423392222786457 1.02715215326415
    vertex -21.930681371522752 -2.926360135733553 0.7840414943378984
  endloop
endfacet
facet normal 0.01561290133705859 -0.9468147093439829 0.3214002854412366
  outer loop
    vertex -21.839961424708637 -2.8423392222786457 1.02715215326415
    vertex 31.06569809023575 -2.1253142614598066 0.5694018992257261
    vertex -21.79660406514671 -2.7970507658405976 1.1584614409458396
  endloop
endfacet
facet normal 0.01564433200079328 -0.929856329993557 0.36759007120318443
  outer loop
    vertex -21.79660406514671 -2.7970507658405976 1.1584614409458396
    vertex 31.06569809023575 -2.1253142614598066 0.5694018992257261
    vertex 31.06569809023575 -2.0328124151486904 0.8419035512033495
  endloop
endfacet
facet normal 0.015646393291293022 -0.9913234963241385 0.13051021420815936
  outer loop
    vertex 31.06569809023575 -2.181456138646235 0.28715762288428137
    vertex -21.930681371522752 -2.926360135733553 0.7840414943378984
    vertex -22.005418707837833 -3.0048245510444125 0.3955561308112772
  endloop
endfacet
facet normal 0.015645353242906647 -0.9687275565413231 0.2476330836527747
  outer loop
    vertex -21.930681371522752 -2.926360135733553 0.7840414943378984
    vertex 31.06569809023575 -2.181456138646235 0.28715762288428137
    vertex 31.06569809023575 -2.1253142614598066 0.5694018992257261
  endloop
endfacet
facet normal 0.015612901337057445 -0.9977372954393037 0.06539515732302198
  outer loop
    vertex 31.06569809023575 -2.2002774436238597 1.639468843757932e-13
    vertex -22.005418707837833 -3.0048245510444125 0.3955561308112772
    vertex -22.01375615105639 -3.030881136481956 3.9836225098884007e-13
  endloop
endfacet
facet normal 0.015646229842850932 -0.99190975643819 0.1259771033737294
  outer loop
    vertex -22.005418707837833 -3.0048245510444125 0.3955561308112772
    vertex 31.06569809023575 -2.2002774436238597 1.639468843757932e-13
    vertex 31.06569809023575 -2.181456138646235 0.28715762288428137
  endloop
endfacet
facet normal 0.01564639329129279 0.9913234963241425 0.13051021420813047
  outer loop
    vertex 31.06569809023575 2.1809012513984998 0.28715762288428137
    vertex -15.119240626276035 2.9224387410221104 3.679037874605957e-13
    vertex -15.16664956492496 2.89817002181282 0.38158784795099665
  endloop
endfacet
facet normal 0.015612901337056968 0.9977372954393052 0.06539515732299958
  outer loop
    vertex -15.119240626276035 2.9224387410221104 3.679037874605957e-13
    vertex 31.06569809023575 2.1809012513984998 0.28715762288428137
    vertex 31.06569809023575 2.199722556376119 1.6393925159249893e-13
  endloop
endfacet
facet normal 0.015646393291293616 0.9658075850832828 0.2587873624668945
  outer loop
    vertex 31.06569809023575 2.1247593742120667 0.5694018992257261
    vertex -15.239938293255397 2.845075234320935 0.6543793153130987
    vertex -15.271117395670323 2.825145235452897 0.7570697251355637
  endloop
endfacet
facet normal 0.015612901337057795 0.9806657336893038 0.1950665426962263
  outer loop
    vertex -15.239938293255397 2.845075234320935 0.6543793153130987
    vertex 31.06569809023575 2.1247593742120667 0.5694018992257261
    vertex -15.16664956492496 2.89817002181282 0.38158784795099665
  endloop
endfacet
facet normal 0.015645937703940484 0.9902985650175172 0.13807228815953873
  outer loop
    vertex -15.16664956492496 2.89817002181282 0.38158784795099665
    vertex 31.06569809023575 2.1247593742120667 0.5694018992257261
    vertex 31.06569809023575 2.1809012513984998 0.28715762288428137
  endloop
endfacet
facet normal 0.015646393291294403 0.923766438289193 0.3826365872044552
  outer loop
    vertex 31.06569809023575 2.03225752790095 0.8419035512033495
    vertex -15.271117395670323 2.825145235452897 0.7570697251355637
    vertex -15.4365116044687 2.704547053547163 1.1203749905676443
  endloop
endfacet
facet normal 0.01564485278301154 0.9620806645016147 0.2723160545644149
  outer loop
    vertex -15.271117395670323 2.825145235452897 0.7570697251355637
    vertex 31.06569809023575 2.03225752790095 0.8419035512033495
    vertex 31.06569809023575 2.1247593742120667 0.5694018992257261
  endloop
endfacet
facet normal 0.015646393291294757 0.8659193916195056 0.49993879384808637
  outer loop
    vertex 31.06569809023575 1.9049784447018845 1.1000000000001802
    vertex -15.4365116044687 2.704547053547163 1.1203749905676443
    vertex -15.650723091287793 2.5380715819285715 1.465516493200358
  endloop
endfacet
facet normal 0.015643700853963154 0.9165084030011684 0.39970942177016483
  outer loop
    vertex -15.4365116044687 2.704547053547163 1.1203749905676443
    vertex 31.06569809023575 1.9049784447018845 1.1000000000001802
    vertex 31.06569809023575 2.03225752790095 0.8419035512033495
  endloop
endfacet
facet normal 0.015646393291294778 0.7932562240810169 0.6086869091197062
  outer loop
    vertex 31.06569809023576 1.7450999050168354 1.3392751438193629
    vertex -15.650723091287793 2.5380715819285715 1.465516493200358
    vertex -15.91040686404626 2.328291246695708 1.786773599445469
  endloop
endfacet
facet normal 0.01564245055259794 0.854477140314967 0.5192534356360732
  outer loop
    vertex -15.650723091287793 2.5380715819285715 1.465516493200358
    vertex 31.06569809023576 1.7450999050168354 1.3392751438193629
    vertex 31.06569809023575 1.9049784447018845 1.1000000000001802
  endloop
endfacet
facet normal 0.01564639329129525 0.7070202226163466 0.7070202226163733
  outer loop
    vertex 31.06569809023576 1.5553574749865282 1.555634918610548
    vertex -15.91040686404626 2.328291246695708 1.786773599445469
    vertex -16.21147571485804 2.078480598903629 2.078758042527888
  endloop
endfacet
facet normal 0.01564121817696539 0.7773379140657241 0.6288887975229719
  outer loop
    vertex -15.91040686404626 2.328291246695708 1.786773599445469
    vertex 31.06569809023576 1.5553574749865282 1.555634918610548
    vertex 31.06569809023576 1.7450999050168354 1.3392751438193629
  endloop
endfacet
facet normal 0.015639098457857947 0.5841799159593445 0.8114735019636554
  outer loop
    vertex -16.549146844711107 1.7925808483509762 2.336498416010732
    vertex 31.06569809023576 1.5553574749865282 1.555634918610548
    vertex -16.21147571485804 2.078480598903629 2.078758042527888
  endloop
endfacet
facet normal 0.01564639329129525 0.7070202226163466 0.7070202226163733
  outer loop
    vertex 31.06569809023576 1.5553574749865282 1.555634918610548
    vertex -16.549146844711107 1.7925808483509762 2.336498416010732
    vertex 31.06569809023576 1.3389977001953068 1.7453773486408741
  endloop
endfacet
facet normal 0.01563828610246954 0.47180458903142636 0.8815644467517189
  outer loop
    vertex -16.917999311610707 1.475154414414637 2.555522941228819
    vertex 31.06569809023576 1.3389977001953068 1.7453773486408741
    vertex -16.549146844711107 1.7925808483509762 2.336498416010732
  endloop
endfacet
facet normal 0.015646393291295413 0.6086869091196587 0.7932562240810535
  outer loop
    vertex 31.06569809023576 1.3389977001953068 1.7453773486408741
    vertex -16.917999311610707 1.475154414414637 2.555522941228819
    vertex 31.06569809023576 1.099722556376125 1.9052558883259232
  endloop
endfacet
facet normal 0.015637659310067557 0.3515578211135923 0.9360355559620401
  outer loop
    vertex -17.312042869802838 1.1313288818511023 2.7319393382291763
    vertex 31.06569809023576 1.099722556376125 1.9052558883259232
    vertex -16.917999311610707 1.475154414414637 2.555522941228819
  endloop
endfacet
facet normal 0.01564639329129584 0.4999387938480981 0.8659193916194988
  outer loop
    vertex 31.06569809023576 1.099722556376125 1.9052558883259232
    vertex -17.312042869802838 1.1313288818511023 2.7319393382291763
    vertex 31.06569809023576 0.8416261075793229 2.032534971524989
  endloop
endfacet
facet normal 0.015612901337061846 0.32140028544129423 0.9468147093439634
  outer loop
    vertex -17.60643623919554 0.8712827541348795 2.82506762767836
    vertex 31.06569809023576 0.8416261075793229 2.032534971524989
    vertex -17.312042869802838 1.1313288818511023 2.7319393382291763
  endloop
endfacet
facet normal 0.015646393291296867 0.3826365872045155 0.9237664382891679
  outer loop
    vertex 31.06569809023576 0.8416261075793229 2.032534971524989
    vertex -17.60643623919554 0.8712827541348795 2.82506762767836
    vertex -17.732850862671462 0.7667624998545075 2.8626320404963868
  endloop
endfacet
facet normal 0.015646393291296867 0.3826365872045155 0.9237664382891679
  outer loop
    vertex 31.06569809023576 0.8416261075793229 2.032534971524989
    vertex -17.732850862671462 0.7667624998545075 2.8626320404963868
    vertex 31.06569809023576 0.5691244556016688 2.125036817836101
  endloop
endfacet
facet normal 0.015636223724519498 0.09468517840933015 0.9953844611491733
  outer loop
    vertex -18.186417439490892 0.3874783229920535 2.945297459006123
    vertex 31.06569809023576 0.5691244556016688 2.125036817836101
    vertex -17.732850862671462 0.7667624998545075 2.8626320404963868
  endloop
endfacet
facet normal 0.01564639329129703 0.25878736246689005 0.9658075850832839
  outer loop
    vertex 31.06569809023576 0.5691244556016688 2.125036817836101
    vertex -18.186417439490892 0.3874783229920535 2.945297459006123
    vertex 31.06569809023576 0.28688017926024456 2.181178695022542
  endloop
endfacet
facet normal 0.015636165766927904 -0.0361511531922419 0.9992240011343704
  outer loop
    vertex -18.645113258638364 -0.00027744362391106115 2.977890128516947
    vertex 31.06569809023576 0.28688017926024456 2.181178695022542
    vertex -18.186417439490892 0.3874783229920535 2.945297459006123
  endloop
endfacet
facet normal 0.01564639329129675 0.13051021420815698 0.9913234963241389
  outer loop
    vertex 31.06569809023576 0.28688017926024456 2.181178695022542
    vertex -18.645113258638364 -0.00027744362391106115 2.977890128516947
    vertex 31.06569809023576 -0.0002774436238701716 2.2000000000001534
  endloop
endfacet
facet normal -0.6216095127378769 0.7807072288513649 -0.06401434599370386
  outer loop
    vertex -21.79660406514671 -2.7970507658405976 1.1584614409458396
    vertex -21.162171897635748 -2.3055589524938034 0.9919697156115294
    vertex -21.839961424708637 -2.8423392222786457 1.02715215326415
  endloop
endfacet
facet normal -0.6343097189163471 0.7714238044931464 -0.050561787444517274
  outer loop
    vertex -21.162171897635748 -2.3055589524938034 0.9919697156115294
    vertex -21.79660406514671 -2.7970507658405976 1.1584614409458396
    vertex -21.60988707995057 -2.619384064244908 1.5121419124522604
  endloop
endfacet
facet normal -0.6343097189163471 0.7714238044931464 -0.050561787444517274
  outer loop
    vertex -21.162171897635748 -2.3055589524938034 0.9919697156115294
    vertex -21.60988707995057 -2.619384064244908 1.5121419124522604
    vertex -21.36364664460299 -2.3965461322131425 1.8387216352038522
  endloop
endfacet
facet normal -0.6343097189163471 0.7714238044931464 -0.050561787444517274
  outer loop
    vertex -21.162171897635748 -2.3055589524938034 0.9919697156115294
    vertex -21.36364664460299 -2.3965461322131425 1.8387216352038522
    vertex -21.162171897635712 -2.2200152393006176 2.035245160138577
  endloop
endfacet
endsolid Antenna-2 Base-1
