solid Antenna-2 Base-2
facet normal 6.123233995735522e-17 -2.0319541793065114e-15 -1.0
  outer loop
    vertex -15.445066909764218 -1.4205581155835033e-13 0.8890000000004833
    vertex 31.065698090235806 -0.11603778488377184 0.8813944817618172
    vertex -15.445066909764218 -0.11603778488377184 0.8813944817618145
  endloop
endfacet
facet normal 6.070848880061614e-17 0.1305261922200733 -0.9914448613738076
  outer loop
    vertex 31.065698090235806 -0.11603778488377184 0.8813944817618172
    vertex -15.445066909764218 -1.4205581155835033e-13 0.8890000000004833
    vertex 31.065698090235806 -1.4205581155835033e-13 0.8890000000004862
  endloop
endfacet
facet normal 6.070848880061166e-17 -0.13052619222007536 -0.9914448613738073
  outer loop
    vertex -15.445066909764218 0.11603778488348032 0.8813944817618145
    vertex 31.065698090235806 -1.4205581155835033e-13 0.8890000000004862
    vertex -15.445066909764218 -1.4205581155835033e-13 0.8890000000004833
  endloop
endfacet
facet normal 6.123233995735522e-17 -2.0319541793065114e-15 -1.0
  outer loop
    vertex 31.065698090235806 -1.4205581155835033e-13 0.8890000000004862
    vertex -15.445066909764218 0.11603778488348032 0.8813944817618145
    vertex 31.065698090235806 0.11603778488348032 0.8813944817618172
  endloop
endfacet
facet normal 5.914589856891733e-17 -0.2588190451025036 -0.965925826289073
  outer loop
    vertex -15.445066909764218 0.23009013109599535 0.8587080595714595
    vertex 31.065698090235806 0.11603778488348032 0.8813944817618172
    vertex -15.445066909764218 0.11603778488348032 0.8813944817618145
  endloop
endfacet
facet normal 6.070848880061166e-17 -0.13052619222007536 -0.9914448613738073
  outer loop
    vertex 31.065698090235806 0.11603778488348032 0.8813944817618172
    vertex -15.445066909764218 0.23009013109599535 0.8587080595714595
    vertex 31.065698090235806 0.23009013109599535 0.8587080595714623
  endloop
endfacet
facet normal 5.65713056143682e-17 -0.3826834323650419 -0.9238795325113067
  outer loop
    vertex -15.445066909764218 0.34020557137241986 0.8213289044030359
    vertex 31.065698090235806 0.23009013109599535 0.8587080595714623
    vertex -15.445066909764218 0.23009013109599535 0.8587080595714595
  endloop
endfacet
facet normal 5.914589856891733e-17 -0.2588190451025036 -0.965925826289073
  outer loop
    vertex 31.065698090235806 0.23009013109599535 0.8587080595714623
    vertex -15.445066909764218 0.34020557137241986 0.8213289044030359
    vertex 31.065698090235806 0.34020557137241986 0.8213289044030386
  endloop
endfacet
facet normal 5.3028761936224965e-17 -0.5000000000000296 -0.8660254037844216
  outer loop
    vertex -15.445066909764218 0.44449999999985795 0.7698965839648543
    vertex 31.065698090235806 0.34020557137241986 0.8213289044030386
    vertex -15.445066909764218 0.34020557137241986 0.8213289044030359
  endloop
endfacet
facet normal 5.65713056143682e-17 -0.3826834323650419 -0.9238795325113067
  outer loop
    vertex 31.065698090235806 0.34020557137241986 0.8213289044030386
    vertex -15.445066909764218 0.44449999999985795 0.7698965839648543
    vertex 31.065698090235806 0.44449999999985795 0.7698965839648572
  endloop
endfacet
facet normal 4.8578881439003884e-17 -0.6087614290087618 -0.7933533402912036
  outer loop
    vertex -15.445066909764218 0.541188910388612 0.7052911195193986
    vertex 31.065698090235806 0.44449999999985795 0.7698965839648572
    vertex -15.445066909764218 0.44449999999985795 0.7698965839648543
  endloop
endfacet
facet normal 5.3028761936224965e-17 -0.5000000000000296 -0.8660254037844216
  outer loop
    vertex 31.065698090235806 0.44449999999985795 0.7698965839648572
    vertex -15.445066909764218 0.541188910388612 0.7052911195193986
    vertex 31.065698090235806 0.541188910388612 0.7052911195194015
  endloop
endfacet
facet normal 4.329780281175174e-17 -0.7071067811865805 -0.7071067811865145
  outer loop
    vertex -15.445066909764218 0.6286179284746968 0.6286179284753147
    vertex 31.065698090235806 0.541188910388612 0.7052911195194015
    vertex -15.445066909764218 0.541188910388612 0.7052911195193986
  endloop
endfacet
facet normal 4.8578881439003884e-17 -0.6087614290087618 -0.7933533402912036
  outer loop
    vertex 31.065698090235806 0.541188910388612 0.7052911195194015
    vertex -15.445066909764218 0.6286179284746968 0.6286179284753147
    vertex 31.065698090235806 0.6286179284746968 0.6286179284753175
  endloop
endfacet
facet normal 3.7275886773974787e-17 -0.7933533402912223 -0.6087614290087374
  outer loop
    vertex 31.065698090235806 0.7052911195187659 0.5411889103892339
    vertex -15.445066909764218 0.6286179284746968 0.6286179284753147
    vertex -15.445066909764218 0.7052911195187659 0.541188910389231
  endloop
endfacet
facet normal 4.329780281175174e-17 -0.7071067811865805 -0.7071067811865145
  outer loop
    vertex -15.445066909764218 0.6286179284746968 0.6286179284753147
    vertex 31.065698090235806 0.7052911195187659 0.5411889103892339
    vertex 31.065698090235806 0.6286179284746968 0.6286179284753175
  endloop
endfacet
facet normal 3.061616997866324e-17 -0.8660254037844344 -0.5000000000000074
  outer loop
    vertex 31.065698090235806 0.7698965839642209 0.4445000000004861
    vertex -15.445066909764218 0.7052911195187659 0.541188910389231
    vertex -15.445066909764218 0.7698965839642209 0.4445000000004833
  endloop
endfacet
facet normal 3.7275886773974787e-17 -0.7933533402912223 -0.6087614290087374
  outer loop
    vertex -15.445066909764218 0.7052911195187659 0.541188910389231
    vertex 31.065698090235806 0.7698965839642209 0.4445000000004861
    vertex 31.065698090235806 0.7052911195187659 0.5411889103892339
  endloop
endfacet
facet normal 2.3432602026612967e-17 -0.9238795325112729 -0.3826834323651232
  outer loop
    vertex 31.065698090235806 0.8213289044023876 0.3402055713730575
    vertex -15.445066909764218 0.7698965839642209 0.4445000000004833
    vertex -15.445066909764218 0.8213289044023876 0.3402055713730547
  endloop
endfacet
facet normal 3.061616997866324e-17 -0.8660254037844344 -0.5000000000000074
  outer loop
    vertex -15.445066909764218 0.7698965839642209 0.4445000000004833
    vertex 31.065698090235806 0.8213289044023876 0.3402055713730575
    vertex 31.065698090235806 0.7698965839642209 0.4445000000004861
  endloop
endfacet
facet normal 1.584809575714066e-17 -0.9659258262890613 -0.2588190451025467
  outer loop
    vertex 31.065698090235806 0.8587080595708405 0.23009013109664042
    vertex -15.445066909764218 0.8213289044023876 0.3402055713730547
    vertex -15.445066909764218 0.8587080595708405 0.2300901310966376
  endloop
endfacet
facet normal 2.3432602026612967e-17 -0.9238795325112729 -0.3826834323651232
  outer loop
    vertex -15.445066909764218 0.8213289044023876 0.3402055713730547
    vertex 31.065698090235806 0.8587080595708405 0.23009013109664042
    vertex 31.065698090235806 0.8213289044023876 0.3402055713730575
  endloop
endfacet
facet normal 7.992424175348962e-18 -0.9914448613738113 -0.1305261922200463
  outer loop
    vertex 31.065698090235806 0.8813944817611743 0.11603778488413279
    vertex -15.445066909764218 0.8587080595708405 0.2300901310966376
    vertex -15.445066909764218 0.8813944817611743 0.11603778488412997
  endloop
endfacet
facet normal 1.584809575714066e-17 -0.9659258262890613 -0.2588190451025467
  outer loop
    vertex -15.445066909764218 0.8587080595708405 0.2300901310966376
    vertex 31.065698090235806 0.8813944817611743 0.11603778488413279
    vertex 31.065698090235806 0.8587080595708405 0.23009013109664042
  endloop
endfacet
facet normal 4.004786643295614e-18 -0.9978589232386037 -0.06540312923014055
  outer loop
    vertex 31.065698090235806 0.8889999999998569 4.95609109307793e-13
    vertex -15.445066909764218 0.8813944817611743 0.11603778488412997
    vertex -15.445066909764218 0.8889999999998569 4.927891428252451e-13
  endloop
endfacet
facet normal 7.992424175348962e-18 -0.9914448613738113 -0.1305261922200463
  outer loop
    vertex -15.445066909764218 0.8813944817611743 0.11603778488412997
    vertex 31.065698090235806 0.8889999999998569 4.95609109307793e-13
    vertex 31.065698090235806 0.8813944817611743 0.11603778488413279
  endloop
endfacet
facet normal 7.992424175366022e-18 0.9914448613738107 -0.1305261922200501
  outer loop
    vertex 31.065698090235806 -0.8813944817614587 0.11603778488413279
    vertex -15.445066909764218 -0.8890000000001421 4.927891428252451e-13
    vertex -15.445066909764218 -0.8813944817614587 0.11603778488412997
  endloop
endfacet
facet normal 4.0047866432958525e-18 0.9978589232386034 -0.06540312923014444
  outer loop
    vertex -15.445066909764218 -0.8890000000001421 4.927891428252451e-13
    vertex 31.065698090235806 -0.8813944817614587 0.11603778488413279
    vertex 31.065698090235806 -0.8890000000001421 4.95609109307793e-13
  endloop
endfacet
facet normal 1.5848095757173634e-17 0.9659258262890618 -0.2588190451025451
  outer loop
    vertex 31.065698090235806 -0.858708059571125 0.23009013109664042
    vertex -15.445066909764218 -0.8813944817614587 0.11603778488412997
    vertex -15.445066909764218 -0.858708059571125 0.2300901310966376
  endloop
endfacet
facet normal 7.992424175366022e-18 0.9914448613738107 -0.1305261922200501
  outer loop
    vertex -15.445066909764218 -0.8813944817614587 0.11603778488412997
    vertex 31.065698090235806 -0.858708059571125 0.23009013109664042
    vertex 31.065698090235806 -0.8813944817614587 0.11603778488413279
  endloop
endfacet
facet normal 2.3432602026644488e-17 0.9238795325112736 -0.3826834323651215
  outer loop
    vertex 31.065698090235806 -0.8213289044026727 0.3402055713730575
    vertex -15.445066909764218 -0.858708059571125 0.2300901310966376
    vertex -15.445066909764218 -0.8213289044026727 0.3402055713730547
  endloop
endfacet
facet normal 1.5848095757173634e-17 0.9659258262890618 -0.2588190451025451
  outer loop
    vertex -15.445066909764218 -0.858708059571125 0.2300901310966376
    vertex 31.065698090235806 -0.8213289044026727 0.3402055713730575
    vertex 31.065698090235806 -0.858708059571125 0.23009013109664042
  endloop
endfacet
facet normal 3.061616997869298e-17 0.8660254037844335 -0.5000000000000089
  outer loop
    vertex 31.065698090235806 -0.7698965839645057 0.4445000000004861
    vertex -15.445066909764218 -0.8213289044026727 0.3402055713730547
    vertex -15.445066909764218 -0.7698965839645057 0.4445000000004833
  endloop
endfacet
facet normal 2.3432602026644488e-17 0.9238795325112736 -0.3826834323651215
  outer loop
    vertex -15.445066909764218 -0.8213289044026727 0.3402055713730547
    vertex 31.065698090235806 -0.7698965839645057 0.4445000000004861
    vertex 31.065698090235806 -0.8213289044026727 0.3402055713730575
  endloop
endfacet
facet normal 3.727588677400211e-17 0.7933533402912205 -0.6087614290087399
  outer loop
    vertex 31.065698090235806 -0.70529111951905 0.5411889103892339
    vertex -15.445066909764218 -0.7698965839645057 0.4445000000004833
    vertex -15.445066909764218 -0.70529111951905 0.541188910389231
  endloop
endfacet
facet normal 3.061616997869298e-17 0.8660254037844335 -0.5000000000000089
  outer loop
    vertex -15.445066909764218 -0.7698965839645057 0.4445000000004833
    vertex 31.065698090235806 -0.70529111951905 0.5411889103892339
    vertex 31.065698090235806 -0.7698965839645057 0.4445000000004861
  endloop
endfacet
facet normal 5.914589856892601e-17 0.2588190451025138 -0.9659258262890701
  outer loop
    vertex -15.445066909764218 -0.23009013109628687 0.8587080595714595
    vertex 31.065698090235806 -0.34020557137270396 0.8213289044030386
    vertex -15.445066909764218 -0.34020557137270396 0.8213289044030359
  endloop
endfacet
facet normal 5.657130561438107e-17 0.3826834323650509 -0.9238795325113028
  outer loop
    vertex 31.065698090235806 -0.34020557137270396 0.8213289044030386
    vertex -15.445066909764218 -0.23009013109628687 0.8587080595714595
    vertex 31.065698090235806 -0.23009013109628687 0.8587080595714623
  endloop
endfacet
facet normal 1.0 0.0 6.123233995736765e-17
  outer loop
    vertex -15.445066909764218 -0.11603778488377184 0.8813944817618145
    vertex -15.445066909764218 0.11603778488348032 0.8813944817618145
    vertex -15.445066909764218 -1.4205581155835033e-13 0.8890000000004833
  endloop
endfacet
facet normal 1.0 0.0 6.123233995736765e-17
  outer loop
    vertex -15.445066909764218 0.11603778488348032 0.8813944817618145
    vertex -15.445066909764218 -0.11603778488377184 0.8813944817618145
    vertex -15.445066909764218 -0.23009013109628687 0.8587080595714595
  endloop
endfacet
facet normal 1.0 0.0 6.123233995736765e-17
  outer loop
    vertex -15.445066909764218 0.11603778488348032 0.8813944817618145
    vertex -15.445066909764218 -0.23009013109628687 0.8587080595714595
    vertex -15.445066909764218 0.23009013109599535 0.8587080595714595
  endloop
endfacet
facet normal 1.0 0.0 6.123233995736765e-17
  outer loop
    vertex -15.445066909764218 0.23009013109599535 0.8587080595714595
    vertex -15.445066909764218 -0.23009013109628687 0.8587080595714595
    vertex -15.445066909764218 -0.34020557137270396 0.8213289044030359
  endloop
endfacet
facet normal 1.0 0.0 6.123233995736765e-17
  outer loop
    vertex -15.445066909764218 0.23009013109599535 0.8587080595714595
    vertex -15.445066909764218 -0.34020557137270396 0.8213289044030359
    vertex -15.445066909764218 0.34020557137241986 0.8213289044030359
  endloop
endfacet
facet normal 1.0 0.0 6.123233995736765e-17
  outer loop
    vertex -15.445066909764218 0.34020557137241986 0.8213289044030359
    vertex -15.445066909764218 -0.34020557137270396 0.8213289044030359
    vertex -15.445066909764218 -0.44450000000014206 0.7698965839648543
  endloop
endfacet
facet normal 1.0 0.0 6.123233995736765e-17
  outer loop
    vertex -15.445066909764218 0.34020557137241986 0.8213289044030359
    vertex -15.445066909764218 -0.44450000000014206 0.7698965839648543
    vertex -15.445066909764218 0.44449999999985795 0.7698965839648543
  endloop
endfacet
facet normal 1.0 0.0 6.123233995736765e-17
  outer loop
    vertex -15.445066909764218 0.44449999999985795 0.7698965839648543
    vertex -15.445066909764218 -0.44450000000014206 0.7698965839648543
    vertex -15.445066909764218 -0.5411889103888965 0.7052911195193986
  endloop
endfacet
facet normal 1.0 0.0 6.123233995736765e-17
  outer loop
    vertex -15.445066909764218 0.44449999999985795 0.7698965839648543
    vertex -15.445066909764218 -0.5411889103888965 0.7052911195193986
    vertex -15.445066909764218 0.541188910388612 0.7052911195193986
  endloop
endfacet
facet normal 1.0 0.0 6.123233995736765e-17
  outer loop
    vertex -15.445066909764218 0.541188910388612 0.7052911195193986
    vertex -15.445066909764218 -0.5411889103888965 0.7052911195193986
    vertex -15.445066909764218 -0.5848592805967244 0.6669932327169431
  endloop
endfacet
facet normal 1.0 0.0 6.123233995736765e-17
  outer loop
    vertex -15.445066909764218 0.541188910388612 0.7052911195193986
    vertex -15.445066909764218 -0.5848592805967244 0.6669932327169431
    vertex -15.445066909764218 0.6286179284746968 0.6286179284753147
  endloop
endfacet
facet normal 1.0 0.0 6.123233995736765e-17
  outer loop
    vertex -15.445066909764218 0.6286179284746968 0.6286179284753147
    vertex -15.445066909764218 -0.5848592805967244 0.6669932327169431
    vertex -15.445066909764218 -0.6286179284749802 0.6286179284753147
  endloop
endfacet
facet normal 1.0 0.0 6.123233995736765e-17
  outer loop
    vertex -15.445066909764218 0.6286179284746968 0.6286179284753147
    vertex -15.445066909764218 -0.6286179284749802 0.6286179284753147
    vertex -15.445066909764218 -0.70529111951905 0.541188910389231
  endloop
endfacet
facet normal 1.0 0.0 6.123233995736765e-17
  outer loop
    vertex -15.445066909764218 0.6286179284746968 0.6286179284753147
    vertex -15.445066909764218 -0.70529111951905 0.541188910389231
    vertex -15.445066909764218 0.7052911195187659 0.541188910389231
  endloop
endfacet
facet normal 1.0 0.0 6.123233995736765e-17
  outer loop
    vertex -15.445066909764218 0.7052911195187659 0.541188910389231
    vertex -15.445066909764218 -0.70529111951905 0.541188910389231
    vertex -15.445066909764218 -0.7698965839645057 0.4445000000004833
  endloop
endfacet
facet normal 1.0 0.0 6.123233995736765e-17
  outer loop
    vertex -15.445066909764218 0.7052911195187659 0.541188910389231
    vertex -15.445066909764218 -0.7698965839645057 0.4445000000004833
    vertex -15.445066909764218 0.7698965839642209 0.4445000000004833
  endloop
endfacet
facet normal 1.0 0.0 6.123233995736765e-17
  outer loop
    vertex -15.445066909764218 0.7698965839642209 0.4445000000004833
    vertex -15.445066909764218 -0.7698965839645057 0.4445000000004833
    vertex -15.445066909764218 -0.8213289044026727 0.3402055713730547
  endloop
endfacet
facet normal 1.0 0.0 6.123233995736765e-17
  outer loop
    vertex -15.445066909764218 0.7698965839642209 0.4445000000004833
    vertex -15.445066909764218 -0.8213289044026727 0.3402055713730547
    vertex -15.445066909764218 0.8213289044023876 0.3402055713730547
  endloop
endfacet
facet normal 1.0 0.0 6.123233995736765e-17
  outer loop
    vertex -15.445066909764218 0.8213289044023876 0.3402055713730547
    vertex -15.445066909764218 -0.8213289044026727 0.3402055713730547
    vertex -15.445066909764218 -0.858708059571125 0.2300901310966376
  endloop
endfacet
facet normal 1.0 0.0 6.123233995736765e-17
  outer loop
    vertex -15.445066909764218 0.8213289044023876 0.3402055713730547
    vertex -15.445066909764218 -0.858708059571125 0.2300901310966376
    vertex -15.445066909764218 0.8587080595708405 0.2300901310966376
  endloop
endfacet
facet normal 1.0 0.0 6.123233995736765e-17
  outer loop
    vertex -15.445066909764218 0.8587080595708405 0.2300901310966376
    vertex -15.445066909764218 -0.858708059571125 0.2300901310966376
    vertex -15.445066909764218 -0.8813944817614587 0.11603778488412997
  endloop
endfacet
facet normal 1.0 0.0 6.123233995736765e-17
  outer loop
    vertex -15.445066909764218 0.8587080595708405 0.2300901310966376
    vertex -15.445066909764218 -0.8813944817614587 0.11603778488412997
    vertex -15.445066909764218 0.8813944817611743 0.11603778488412997
  endloop
endfacet
facet normal 1.0 0.0 6.123233995736765e-17
  outer loop
    vertex -15.445066909764218 0.8813944817611743 0.11603778488412997
    vertex -15.445066909764218 -0.8813944817614587 0.11603778488412997
    vertex -15.445066909764218 -0.8890000000001421 4.927891428252451e-13
  endloop
endfacet
facet normal 1.0 0.0 6.123233995736765e-17
  outer loop
    vertex -15.445066909764218 0.8813944817611743 0.11603778488412997
    vertex -15.445066909764218 -0.8890000000001421 4.927891428252451e-13
    vertex -15.445066909764218 0.8889999999998569 4.927891428252451e-13
  endloop
endfacet
facet normal 4.6036910685031304e-17 0.6593458151001664 -0.7518398074788919
  outer loop
    vertex -15.445066909764218 -0.5848592805967244 0.6669932327169431
    vertex 31.065698090235806 -0.6286179284749802 0.6286179284753175
    vertex -15.445066909764218 -0.6286179284749802 0.6286179284753147
  endloop
endfacet
facet normal 4.329780281177607e-17 0.7071067811865788 -0.7071067811865163
  outer loop
    vertex 31.065698090235806 -0.6286179284749802 0.6286179284753175
    vertex -15.445066909764218 -0.5848592805967244 0.6669932327169431
    vertex 31.065698090235806 -0.5848592805967244 0.6669932327169459
  endloop
endfacet
facet normal 4.8578881439024647e-17 0.6087614290087637 -0.7933533402912022
  outer loop
    vertex -15.445066909764218 -0.5411889103888965 0.7052911195193986
    vertex 31.065698090235806 -0.5848592805967244 0.6669932327169459
    vertex -15.445066909764218 -0.5848592805967244 0.6669932327169431
  endloop
endfacet
facet normal 4.6036910685031125e-17 0.6593458151001697 -0.751839807478889
  outer loop
    vertex 31.065698090235806 -0.5848592805967244 0.6669932327169459
    vertex -15.445066909764218 -0.5411889103888965 0.7052911195193986
    vertex 31.065698090235806 -0.5411889103888965 0.7052911195194015
  endloop
endfacet
facet normal 4.329780281177607e-17 0.7071067811865788 -0.7071067811865163
  outer loop
    vertex 31.065698090235806 -0.6286179284749802 0.6286179284753175
    vertex -15.445066909764218 -0.70529111951905 0.541188910389231
    vertex -15.445066909764218 -0.6286179284749802 0.6286179284753147
  endloop
endfacet
facet normal 3.727588677400211e-17 0.7933533402912205 -0.6087614290087399
  outer loop
    vertex -15.445066909764218 -0.70529111951905 0.541188910389231
    vertex 31.065698090235806 -0.6286179284749802 0.6286179284753175
    vertex 31.065698090235806 -0.70529111951905 0.5411889103892339
  endloop
endfacet
facet normal 6.070848880061614e-17 0.1305261922200733 -0.9914448613738076
  outer loop
    vertex -15.445066909764218 -0.11603778488377184 0.8813944817618145
    vertex 31.065698090235806 -0.23009013109628687 0.8587080595714623
    vertex -15.445066909764218 -0.23009013109628687 0.8587080595714595
  endloop
endfacet
facet normal 5.914589856892601e-17 0.2588190451025138 -0.9659258262890701
  outer loop
    vertex 31.065698090235806 -0.23009013109628687 0.8587080595714623
    vertex -15.445066909764218 -0.11603778488377184 0.8813944817618145
    vertex 31.065698090235806 -0.11603778488377184 0.8813944817618172
  endloop
endfacet
facet normal 5.302876193624211e-17 0.500000000000029 -0.866025403784422
  outer loop
    vertex -15.445066909764218 -0.44450000000014206 0.7698965839648543
    vertex 31.065698090235806 -0.5411889103888965 0.7052911195194015
    vertex -15.445066909764218 -0.5411889103888965 0.7052911195193986
  endloop
endfacet
facet normal 4.8578881439024647e-17 0.6087614290087637 -0.7933533402912022
  outer loop
    vertex 31.065698090235806 -0.5411889103888965 0.7052911195194015
    vertex -15.445066909764218 -0.44450000000014206 0.7698965839648543
    vertex 31.065698090235806 -0.44450000000014206 0.7698965839648572
  endloop
endfacet
facet normal -1.3817732790817956e-09 -0.9973195918646086 -0.07316851565400742
  outer loop
    vertex -15.681437062554119 -2.4126248764103813 4.4907966234575267e-13
    vertex -31.06569809023574 -2.422893053346009 0.1399601346257129
    vertex -31.06569809023575 -2.4126248337286014 4.867967140498308e-13
  endloop
endfacet
facet normal -6.968480523810398e-10 -0.9983377966134133 0.05763370414154509
  outer loop
    vertex -31.06569809023574 -2.422893053346009 0.1399601346257129
    vertex -15.681437062554119 -2.4126248764103813 4.4907966234575267e-13
    vertex -15.662541740423615 -2.422893053346003 0.13996013462571222
  endloop
endfacet
facet normal 5.2779470788496e-17 0.247011377556532 0.969012579566243
  outer loop
    vertex -19.154514025624852 0.7620094584321855 2.3040846644192268
    vertex -31.06569809023574 1.3327074405517167 2.0282390953790057
    vertex -31.06569809023574 0.7620094584321848 2.304084664419228
  endloop
endfacet
facet normal 2.4345392757883025e-16 0.5491354250326353 0.8357333815124457
  outer loop
    vertex -31.06569809023574 1.3327074405517167 2.0282390953790057
    vertex -19.154514025624852 0.7620094584321855 2.3040846644192268
    vertex -19.842395275543698 1.332707440551719 2.0282390953789995
  endloop
endfacet
facet normal 5.2779470788496e-17 0.247011377556532 0.969012579566243
  outer loop
    vertex -19.154514025624852 0.7620094584321855 2.3040846644192268
    vertex -31.06569809023574 0.1397180354259197 2.4228431988995958
    vertex -18.414973930690493 0.1397180354259176 2.4228431988995967
  endloop
endfacet
facet normal -3.6920226156992233e-17 0.057637601170049894 0.9983375716316413
  outer loop
    vertex -31.06569809023574 0.1397180354259197 2.4228431988995958
    vertex -19.154514025624852 0.7620094584321855 2.3040846644192268
    vertex -31.06569809023574 0.7620094584321848 2.304084664419228
  endloop
endfacet
facet normal -7.013348534222308e-10 -0.9983862950408703 0.05678737425312482
  outer loop
    vertex -15.662541740423615 -2.422893053346003 0.13996013462571222
    vertex -31.06569809023574 -2.3041404227090125 0.7622475185555919
    vertex -31.06569809023574 -2.422893053346009 0.1399601346257129
  endloop
endfacet
facet normal 2.3037941592164564e-16 -0.9494035846677723 0.3140586464658859
  outer loop
    vertex -31.06569809023574 -2.3041404227090125 0.7622475185555919
    vertex -15.662541740423615 -2.422893053346003 0.13996013462571222
    vertex -15.759730858779553 -2.3041404227090063 0.7622475185555923
  endloop
endfacet
facet normal -1.7555864373635094e-16 -0.5064368662930923 0.8622770439129367
  outer loop
    vertex -17.021335235658317 -1.090393457055091 2.1681887378380527
    vertex -31.06569809023574 -0.49210045879880326 2.3764896349051003
    vertex -31.06569809023574 -1.0903934570550924 2.168188737838048
  endloop
endfacet
facet normal -1.1309576948268735e-16 -0.2027190262162455 0.9792369459992496
  outer loop
    vertex -31.06569809023574 -0.49210045879880326 2.3764896349051003
    vertex -17.021335235658317 -1.090393457055091 2.1681887378380527
    vertex -17.60643623919543 -0.5502828270075939 2.3562329387266416
  endloop
endfacet
facet normal -1.1309576948268735e-16 -0.2027190262162455 0.9792369459992496
  outer loop
    vertex -31.06569809023574 -0.49210045879880326 2.3764896349051003
    vertex -17.60643623919543 -0.5502828270075939 2.3562329387266416
    vertex -17.673767102253297 -0.49210045879880643 2.376489634905101
  endloop
endfacet
facet normal -0.6216095127377865 -0.7823837191121646 0.03843604743088781
  outer loop
    vertex -21.235592922211538 2.412347390104565 4.367423089846056e-13
    vertex -21.955533973980852 3.0037731739402362 0.39545424053574324
    vertex -22.013756151056395 3.0306036928579307 4.924366470149266e-13
  endloop
endfacet
facet normal -0.6216095127377865 -0.7823837191121646 0.03843604743088781
  outer loop
    vertex -21.955533973980852 3.0037731739402362 0.39545424053574324
    vertex -21.235592922211538 2.412347390104565 4.367423089846056e-13
    vertex -21.831866775897687 2.924589099057559 0.7836412872859014
  endloop
endfacet
facet normal -0.6216095127377865 -0.7823837191121646 0.03843604743088781
  outer loop
    vertex -21.831866775897687 2.924589099057559 0.7836412872859014
    vertex -21.235592922211538 2.412347390104565 4.367423089846056e-13
    vertex -21.645115755760102 2.7945832326632845 1.1575542761500566
  endloop
endfacet
facet normal -0.6216095127377865 -0.7823837191121646 0.03843604743088781
  outer loop
    vertex -21.645115755760102 2.7945832326632845 1.1575542761500566
    vertex -21.235592922211538 2.412347390104565 4.367423089846056e-13
    vertex -21.398830435482726 2.616246416226017 1.510490572674982
  endloop
endfacet
facet normal -0.6216095127377865 -0.7823837191121646 0.03843604743088781
  outer loop
    vertex -21.398830435482726 2.616246416226017 1.510490572674982
    vertex -21.235592922211538 2.412347390104565 4.367423089846056e-13
    vertex -21.162171897635783 2.4407927075340776 1.7664241016247562
  endloop
endfacet
facet normal -0.6398915388817074 -0.7675395856610925 0.03770680191688063
  outer loop
    vertex -21.162171897635783 2.4407927075340776 1.7664241016247562
    vertex -21.235592922211538 2.412347390104565 4.367423089846056e-13
    vertex -21.162171897635773 2.377409170584203 0.4762225672840652
  endloop
endfacet
facet normal 5.541239804678559e-16 0.8744000822181172 0.48520562261473227
  outer loop
    vertex -20.88003496858951 2.1679470423900287 1.0903436322301678
    vertex -31.06569809023574 2.3762479394570404 0.4920506339738627
    vertex -31.06569809023574 2.1679470423900358 1.0903436322301696
  endloop
endfacet
facet normal 7.613349242711516e-16 0.9792369459992435 0.20271902621627533
  outer loop
    vertex -31.06569809023574 2.3762479394570404 0.4920506339738627
    vertex -20.88003496858951 2.1679470423900287 1.0903436322301678
    vertex -21.159889184279105 2.3762479394570324 0.4920506339738641
  endloop
endfacet
facet normal -6.494695785858949e-17 -0.8594855908457882 0.5111599741064107
  outer loop
    vertex -16.032784370033614 -2.028374363348791 1.3325955316023754
    vertex -31.06569809023574 -1.6143878764859325 1.8121358992216692
    vertex -31.06569809023574 -2.0283743633487865 1.3325955316023728
  endloop
endfacet
facet normal -2.2471200277319653e-16 -0.6651782995333311 0.7466845584515233
  outer loop
    vertex -31.06569809023574 -1.6143878764859325 1.8121358992216692
    vertex -16.032784370033614 -2.028374363348791 1.3325955316023754
    vertex -16.463094128635934 -1.6143878764859343 1.812135899221671
  endloop
endfacet
facet normal 3.1779921445447877e-16 0.7092060301446312 0.7050012814218798
  outer loop
    vertex -20.430509353458294 1.8118868441303875 1.6143488826713361
    vertex -31.06569809023574 2.1679470423900358 1.0903436322301696
    vertex -31.06569809023574 1.8118868441303855 1.614348882671342
  endloop
endfacet
facet normal 6.097968149232999e-16 0.8934027114076928 0.4492567141951058
  outer loop
    vertex -31.06569809023574 2.1679470423900358 1.0903436322301696
    vertex -20.430509353458294 1.8118868441303875 1.6143488826713361
    vertex -20.88003496858951 2.1679470423900287 1.0903436322301678
  endloop
endfacet
facet normal -1.7555864373635094e-16 -0.5064368662930923 0.8622770439129367
  outer loop
    vertex -17.021335235658317 -1.090393457055091 2.1681887378380527
    vertex -31.06569809023574 -1.6143878764859325 1.8121358992216692
    vertex -16.463094128635934 -1.6143878764859343 1.812135899221671
  endloop
endfacet
facet normal -2.2471200277319653e-16 -0.6651782995333311 0.7466845584515233
  outer loop
    vertex -31.06569809023574 -1.6143878764859325 1.8121358992216692
    vertex -17.021335235658317 -1.090393457055091 2.1681887378380527
    vertex -31.06569809023574 -1.0903934570550924 2.168188737838048
  endloop
endfacet
facet normal -5.885871549628357e-17 -0.014512455860564296 0.9998946887672198
  outer loop
    vertex -18.414973930690493 0.1397180354259176 2.4228431988995967
    vertex -31.06569809023574 -0.49210045879880326 2.3764896349051003
    vertex -17.673767102253297 -0.49210045879880643 2.376489634905101
  endloop
endfacet
facet normal -1.1309576948268735e-16 -0.2027190262162455 0.9792369459992496
  outer loop
    vertex -31.06569809023574 -0.49210045879880326 2.3764896349051003
    vertex -18.414973930690493 0.1397180354259176 2.4228431988995967
    vertex -31.06569809023574 0.1397180354259197 2.4228431988995958
  endloop
endfacet
facet normal 2.2907146137106182e-16 0.4942083534685461 0.8693434898599682
  outer loop
    vertex -19.842395275543698 1.332707440551719 2.0282390953789995
    vertex -31.06569809023574 1.8118868441303855 1.614348882671342
    vertex -31.06569809023574 1.3327074405517167 2.0282390953790057
  endloop
endfacet
facet normal 3.5150234604340745e-16 0.7467701738255232 0.6650821810006624
  outer loop
    vertex -31.06569809023574 1.8118868441303855 1.614348882671342
    vertex -19.842395275543698 1.332707440551719 2.0282390953789995
    vertex -20.430509353458294 1.8118868441303875 1.6143488826713361
  endloop
endfacet
facet normal 2.6848412727494525e-16 -0.9571011525225258 0.28975400573599125
  outer loop
    vertex -15.759730858779553 -2.3041404227090063 0.7622475185555923
    vertex -31.06569809023574 -2.0283743633487865 1.3325955316023728
    vertex -31.06569809023574 -2.3041404227090125 0.7622475185555919
  endloop
endfacet
facet normal -1.1560629132515458e-16 -0.8357690830175036 0.5490810867914511
  outer loop
    vertex -31.06569809023574 -2.0283743633487865 1.3325955316023728
    vertex -15.759730858779553 -2.3041404227090063 0.7622475185555923
    vertex -16.032784370033614 -2.028374363348791 1.3325955316023754
  endloop
endfacet
facet normal 7.613349242711516e-16 0.9792369459992435 0.20271902621627533
  outer loop
    vertex -31.06569809023574 2.3762479394570404 0.4920506339738627
    vertex -21.235592922211538 2.412347390104565 4.367423089846056e-13
    vertex -31.06569809023575 2.4123473901045718 4.4238224194970144e-13
  endloop
endfacet
facet normal 7.279348981422856e-16 0.997319580760901 0.07316866700234868
  outer loop
    vertex -21.235592922211538 2.412347390104565 4.367423089846056e-13
    vertex -31.06569809023574 2.3762479394570404 0.4920506339738627
    vertex -21.159889184279105 2.3762479394570324 0.4920506339738641
  endloop
endfacet
facet normal 7.279348981422856e-16 0.997319580760901 0.07316866700234868
  outer loop
    vertex -21.235592922211538 2.412347390104565 4.367423089846056e-13
    vertex -21.159889184279105 2.3762479394570324 0.4920506339738641
    vertex -21.162171897635773 2.377409170584203 0.4762225672840652
  endloop
endfacet
facet normal -1.0 -1.2354253077956632e-16 2.1775256534065677e-15
  outer loop
    vertex -31.06569809023574 0.7620094584321848 2.304084664419228
    vertex -31.06569809023574 -0.49210045879880326 2.3764896349051003
    vertex -31.06569809023574 0.1397180354259197 2.4228431988995958
  endloop
endfacet
facet normal -1.0 -1.2354253077956632e-16 2.1775256534065677e-15
  outer loop
    vertex -31.06569809023574 -0.49210045879880326 2.3764896349051003
    vertex -31.06569809023574 0.7620094584321848 2.304084664419228
    vertex -31.06569809023574 -1.0903934570550924 2.168188737838048
  endloop
endfacet
facet normal -1.0 -1.2354253077956632e-16 2.1775256534065677e-15
  outer loop
    vertex -31.06569809023574 -1.0903934570550924 2.168188737838048
    vertex -31.06569809023574 0.7620094584321848 2.304084664419228
    vertex -31.06569809023574 1.3327074405517167 2.0282390953790057
  endloop
endfacet
facet normal -1.0 -1.2354253077956632e-16 2.1775256534065677e-15
  outer loop
    vertex -31.06569809023574 -1.0903934570550924 2.168188737838048
    vertex -31.06569809023574 1.3327074405517167 2.0282390953790057
    vertex -31.06569809023574 -1.6143878764859325 1.8121358992216692
  endloop
endfacet
facet normal -1.0 -1.2354253077956632e-16 2.1775256534065677e-15
  outer loop
    vertex -31.06569809023574 -1.6143878764859325 1.8121358992216692
    vertex -31.06569809023574 1.3327074405517167 2.0282390953790057
    vertex -31.06569809023574 1.8118868441303855 1.614348882671342
  endloop
endfacet
facet normal -1.0 -1.2354253077956632e-16 2.1775256534065677e-15
  outer loop
    vertex -31.06569809023574 -1.6143878764859325 1.8121358992216692
    vertex -31.06569809023574 1.8118868441303855 1.614348882671342
    vertex -31.06569809023574 -2.0283743633487865 1.3325955316023728
  endloop
endfacet
facet normal -1.0 -1.2354253077956632e-16 2.1775256534065677e-15
  outer loop
    vertex -31.06569809023574 -2.0283743633487865 1.3325955316023728
    vertex -31.06569809023574 1.8118868441303855 1.614348882671342
    vertex -31.06569809023574 2.1679470423900358 1.0903436322301696
  endloop
endfacet
facet normal -1.0 -1.2354253077956632e-16 2.1775256534065677e-15
  outer loop
    vertex -31.06569809023574 -2.0283743633487865 1.3325955316023728
    vertex -31.06569809023574 2.1679470423900358 1.0903436322301696
    vertex -31.06569809023574 -2.3041404227090125 0.7622475185555919
  endloop
endfacet
facet normal -1.0 -1.2354253077956632e-16 2.1775256534065677e-15
  outer loop
    vertex -31.06569809023574 -2.3041404227090125 0.7622475185555919
    vertex -31.06569809023574 2.1679470423900358 1.0903436322301696
    vertex -31.06569809023574 2.3762479394570404 0.4920506339738627
  endloop
endfacet
facet normal -1.0 -1.2354253077956632e-16 2.1775256534065677e-15
  outer loop
    vertex -31.06569809023574 -2.3041404227090125 0.7622475185555919
    vertex -31.06569809023574 2.3762479394570404 0.4920506339738627
    vertex -31.06569809023574 -2.422893053346009 0.1399601346257129
  endloop
endfacet
facet normal -1.0 -1.2354253077956632e-16 2.1775256534065677e-15
  outer loop
    vertex -31.06569809023574 -2.422893053346009 0.1399601346257129
    vertex -31.06569809023574 2.3762479394570404 0.4920506339738627
    vertex -31.06569809023575 2.4123473901045718 4.4238224194970144e-13
  endloop
endfacet
facet normal -1.0 -1.2354253077956632e-16 2.1775256534065677e-15
  outer loop
    vertex -31.06569809023574 -2.422893053346009 0.1399601346257129
    vertex -31.06569809023575 2.4123473901045718 4.4238224194970144e-13
    vertex -31.06569809023575 -2.4126248337286014 4.867967140498308e-13
  endloop
endfacet
facet normal 5.657130561438107e-17 0.3826834323650509 -0.9238795325113028
  outer loop
    vertex -15.445066909764218 -0.34020557137270396 0.8213289044030359
    vertex 31.065698090235806 -0.44450000000014206 0.7698965839648572
    vertex -15.445066909764218 -0.44450000000014206 0.7698965839648543
  endloop
endfacet
facet normal 5.302876193624211e-17 0.500000000000029 -0.866025403784422
  outer loop
    vertex 31.065698090235806 -0.44450000000014206 0.7698965839648572
    vertex -15.445066909764218 -0.34020557137270396 0.8213289044030359
    vertex 31.065698090235806 -0.34020557137270396 0.8213289044030386
  endloop
endfacet
facet normal 1.0 1.7099459601118548e-16 2.5275604942261983e-14
  outer loop
    vertex 31.06569809023575 -2.0325349715249628 0.8419035512036795
    vertex 31.065698090235806 -1.4205581155835033e-13 0.8890000000004862
    vertex 31.06569809023575 -1.9052558883258972 1.1000000000004784
  endloop
endfacet
facet normal 1.0 1.7099459601118548e-16 2.5275604942261983e-14
  outer loop
    vertex 31.065698090235806 -1.4205581155835033e-13 0.8890000000004862
    vertex 31.06569809023575 -2.0325349715249628 0.8419035512036795
    vertex 31.065698090235806 -0.11603778488377184 0.8813944817618172
  endloop
endfacet
facet normal 1.0 1.7099459601118548e-16 2.5275604942261983e-14
  outer loop
    vertex 31.065698090235806 -0.11603778488377184 0.8813944817618172
    vertex 31.06569809023575 -2.0325349715249628 0.8419035512036795
    vertex 31.065698090235806 -0.23009013109628687 0.8587080595714623
  endloop
endfacet
facet normal 1.0 1.7099459601118548e-16 2.5275604942261983e-14
  outer loop
    vertex 31.065698090235806 -0.23009013109628687 0.8587080595714623
    vertex 31.06569809023575 -2.0325349715249628 0.8419035512036795
    vertex 31.065698090235806 -0.34020557137270396 0.8213289044030386
  endloop
endfacet
facet normal 1.0 1.7099459601118548e-16 2.5275604942261983e-14
  outer loop
    vertex 31.065698090235806 -0.34020557137270396 0.8213289044030386
    vertex 31.06569809023575 -2.0325349715249628 0.8419035512036795
    vertex 31.06569809023575 -2.125036817836079 0.5694018992260469
  endloop
endfacet
facet normal 1.0 1.7099459601118548e-16 2.5275604942261983e-14
  outer loop
    vertex 31.065698090235806 -0.34020557137270396 0.8213289044030386
    vertex 31.06569809023575 -2.125036817836079 0.5694018992260469
    vertex 31.065698090235806 -0.44450000000014206 0.7698965839648572
  endloop
endfacet
facet normal 1.0 1.7099459601118548e-16 2.5275604942261983e-14
  outer loop
    vertex 31.065698090235806 -0.44450000000014206 0.7698965839648572
    vertex 31.06569809023575 -2.125036817836079 0.5694018992260469
    vertex 31.065698090235806 -0.5411889103888965 0.7052911195194015
  endloop
endfacet
facet normal 1.0 1.7099459601118548e-16 2.5275604942261983e-14
  outer loop
    vertex 31.065698090235806 -0.5411889103888965 0.7052911195194015
    vertex 31.06569809023575 -2.125036817836079 0.5694018992260469
    vertex 31.065698090235806 -0.5848592805967244 0.6669932327169459
  endloop
endfacet
facet normal 1.0 1.7099459601118548e-16 2.5275604942261983e-14
  outer loop
    vertex 31.065698090235806 -0.5848592805967244 0.6669932327169459
    vertex 31.06569809023575 -2.125036817836079 0.5694018992260469
    vertex 31.065698090235806 -0.6286179284749802 0.6286179284753175
  endloop
endfacet
facet normal 1.0 1.7099459601118548e-16 2.5275604942261983e-14
  outer loop
    vertex 31.065698090235806 -0.6286179284749802 0.6286179284753175
    vertex 31.06569809023575 -2.125036817836079 0.5694018992260469
    vertex 31.065698090235806 -0.70529111951905 0.5411889103892339
  endloop
endfacet
facet normal 1.0 1.7099459601118548e-16 2.5275604942261983e-14
  outer loop
    vertex 31.065698090235806 -0.70529111951905 0.5411889103892339
    vertex 31.06569809023575 -2.125036817836079 0.5694018992260469
    vertex 31.06569809023575 -2.1811786950225125 0.2871576228846033
  endloop
endfacet
facet normal 1.0 1.7099459601118548e-16 2.5275604942261983e-14
  outer loop
    vertex 31.065698090235806 -0.70529111951905 0.5411889103892339
    vertex 31.06569809023575 -2.1811786950225125 0.2871576228846033
    vertex 31.065698090235806 -0.7698965839645057 0.4445000000004861
  endloop
endfacet
facet normal 1.0 1.7099459601118548e-16 2.5275604942261983e-14
  outer loop
    vertex 31.065698090235806 -0.7698965839645057 0.4445000000004861
    vertex 31.06569809023575 -2.1811786950225125 0.2871576228846033
    vertex 31.065698090235806 -0.8213289044026727 0.3402055713730575
  endloop
endfacet
facet normal 1.0 1.7099459601118548e-16 2.5275604942261983e-14
  outer loop
    vertex 31.065698090235806 -0.8213289044026727 0.3402055713730575
    vertex 31.06569809023575 -2.1811786950225125 0.2871576228846033
    vertex 31.065698090235806 -0.858708059571125 0.23009013109664042
  endloop
endfacet
facet normal 1.0 1.7099459601118548e-16 2.5275604942261983e-14
  outer loop
    vertex 31.065698090235806 -0.858708059571125 0.23009013109664042
    vertex 31.06569809023575 -2.1811786950225125 0.2871576228846033
    vertex 31.06569809023575 -2.200000000000131 4.95609109307793e-13
  endloop
endfacet
facet normal 1.0 1.7099459601118548e-16 2.5275604942261983e-14
  outer loop
    vertex 31.065698090235806 -0.858708059571125 0.23009013109664042
    vertex 31.06569809023575 -2.200000000000131 4.95609109307793e-13
    vertex 31.065698090235806 -0.8813944817614587 0.11603778488413279
  endloop
endfacet
facet normal 1.0 1.7099459601118548e-16 2.5275604942261983e-14
  outer loop
    vertex 31.065698090235806 -0.8813944817614587 0.11603778488413279
    vertex 31.06569809023575 -2.200000000000131 4.95609109307793e-13
    vertex 31.065698090235806 -0.8890000000001421 4.95609109307793e-13
  endloop
endfacet
facet normal 1.0 1.7099459601118548e-16 2.5275604942261983e-14
  outer loop
    vertex 31.06569809023575 -0.2871576228842568 2.181178695022874
    vertex 31.06569809023575 0.2871576228839727 2.181178695022874
    vertex 31.06569809023575 -1.4205581155835033e-13 2.2000000000004865
  endloop
endfacet
facet normal 1.0 1.7099459601118548e-16 2.5275604942261983e-14
  outer loop
    vertex 31.06569809023575 0.2871576228839727 2.181178695022874
    vertex 31.06569809023575 -0.2871576228842568 2.181178695022874
    vertex 31.06569809023575 -0.5694018992256877 2.1250368178364325
  endloop
endfacet
facet normal 1.0 1.7099459601118548e-16 2.5275604942261983e-14
  outer loop
    vertex 31.06569809023575 0.2871576228839727 2.181178695022874
    vertex 31.06569809023575 -0.5694018992256877 2.1250368178364325
    vertex 31.06569809023575 0.5694018992254029 2.1250368178364325
  endloop
endfacet
facet normal 1.0 1.7099459601118548e-16 2.5275604942261983e-14
  outer loop
    vertex 31.06569809023575 0.5694018992254029 2.1250368178364325
    vertex 31.06569809023575 -0.5694018992256877 2.1250368178364325
    vertex 31.06569809023575 -0.8419035512033352 2.032534971525316
  endloop
endfacet
facet normal 1.0 1.7099459601118548e-16 2.5275604942261983e-14
  outer loop
    vertex 31.06569809023575 0.5694018992254029 2.1250368178364325
    vertex 31.06569809023575 -0.8419035512033352 2.032534971525316
    vertex 31.06569809023575 0.8419035512030504 2.032534971525316
  endloop
endfacet
facet normal 1.0 1.7099459601118548e-16 2.5275604942261983e-14
  outer loop
    vertex 31.06569809023575 0.8419035512030504 2.032534971525316
    vertex 31.06569809023575 -0.8419035512033352 2.032534971525316
    vertex 31.06569809023575 -1.1000000000001373 1.9052558883262434
  endloop
endfacet
facet normal 1.0 1.7099459601118548e-16 2.5275604942261983e-14
  outer loop
    vertex 31.06569809023575 0.8419035512030504 2.032534971525316
    vertex 31.06569809023575 -1.1000000000001373 1.9052558883262434
    vertex 31.06569809023575 1.0999999999998535 1.9052558883262434
  endloop
endfacet
facet normal 1.0 1.7099459601118548e-16 2.5275604942261983e-14
  outer loop
    vertex 31.06569809023575 1.0999999999998535 1.9052558883262434
    vertex 31.06569809023575 -1.1000000000001373 1.9052558883262434
    vertex 31.06569809023575 -1.3392751438193193 1.7453773486411943
  endloop
endfacet
facet normal 1.0 1.7099459601118548e-16 2.5275604942261983e-14
  outer loop
    vertex 31.06569809023575 1.0999999999998535 1.9052558883262434
    vertex 31.06569809023575 -1.3392751438193193 1.7453773486411943
    vertex 31.06569809023575 1.3392751438190342 1.7453773486411943
  endloop
endfacet
facet normal 1.0 1.7099459601118548e-16 2.5275604942261983e-14
  outer loop
    vertex 31.06569809023575 1.3392751438190342 1.7453773486411943
    vertex 31.06569809023575 -1.3392751438193193 1.7453773486411943
    vertex 31.06569809023575 -1.555634918610541 1.5556349186108798
  endloop
endfacet
facet normal 1.0 1.7099459601118548e-16 2.5275604942261983e-14
  outer loop
    vertex 31.06569809023575 1.3392751438190342 1.7453773486411943
    vertex 31.06569809023575 -1.555634918610541 1.5556349186108798
    vertex 31.06569809023575 1.5556349186102558 1.5556349186108798
  endloop
endfacet
facet normal 1.0 1.7099459601118548e-16 2.5275604942261983e-14
  outer loop
    vertex 31.06569809023575 1.5556349186102558 1.5556349186108798
    vertex 31.06569809023575 -1.555634918610541 1.5556349186108798
    vertex 31.06569809023575 -1.7453773486408555 1.339275143819651
  endloop
endfacet
facet normal 1.0 1.7099459601118548e-16 2.5275604942261983e-14
  outer loop
    vertex 31.06569809023575 1.5556349186102558 1.5556349186108798
    vertex 31.06569809023575 -1.7453773486408555 1.339275143819651
    vertex 31.06569809023575 1.745377348640563 1.3392751438196873
  endloop
endfacet
facet normal 1.0 1.7099459601118548e-16 2.5275604942261983e-14
  outer loop
    vertex 31.06569809023575 1.745377348640563 1.3392751438196873
    vertex 31.06569809023575 -1.7453773486408555 1.339275143819651
    vertex 31.06569809023575 1.905255888325613 1.1000000000005072
  endloop
endfacet
facet normal 1.0 1.7099459601118548e-16 2.5275604942261983e-14
  outer loop
    vertex 31.06569809023575 1.905255888325613 1.1000000000005072
    vertex 31.06569809023575 -1.7453773486408555 1.339275143819651
    vertex 31.06569809023575 -1.9052558883258972 1.1000000000004784
  endloop
endfacet
facet normal 1.0 1.7099459601118548e-16 2.5275604942261983e-14
  outer loop
    vertex 31.06569809023575 1.905255888325613 1.1000000000005072
    vertex 31.06569809023575 -1.9052558883258972 1.1000000000004784
    vertex 31.06569809023575 2.0325349715246785 0.8419035512036795
  endloop
endfacet
facet normal 1.0 1.7099459601118548e-16 2.5275604942261983e-14
  outer loop
    vertex 31.06569809023575 2.0325349715246785 0.8419035512036795
    vertex 31.06569809023575 -1.9052558883258972 1.1000000000004784
    vertex 31.065698090235806 -1.4205581155835033e-13 0.8890000000004862
  endloop
endfacet
facet normal 1.0 1.7099459601118548e-16 2.5275604942261983e-14
  outer loop
    vertex 31.06569809023575 2.0325349715246785 0.8419035512036795
    vertex 31.065698090235806 -1.4205581155835033e-13 0.8890000000004862
    vertex 31.065698090235806 0.11603778488348032 0.8813944817618172
  endloop
endfacet
facet normal 1.0 1.7099459601118548e-16 2.5275604942261983e-14
  outer loop
    vertex 31.06569809023575 2.0325349715246785 0.8419035512036795
    vertex 31.065698090235806 0.11603778488348032 0.8813944817618172
    vertex 31.065698090235806 0.23009013109599535 0.8587080595714623
  endloop
endfacet
facet normal 1.0 1.7099459601118548e-16 2.5275604942261983e-14
  outer loop
    vertex 31.06569809023575 2.0325349715246785 0.8419035512036795
    vertex 31.065698090235806 0.23009013109599535 0.8587080595714623
    vertex 31.065698090235806 0.34020557137241986 0.8213289044030386
  endloop
endfacet
facet normal 1.0 1.7099459601118548e-16 2.5275604942261983e-14
  outer loop
    vertex 31.06569809023575 2.0325349715246785 0.8419035512036795
    vertex 31.065698090235806 0.34020557137241986 0.8213289044030386
    vertex 31.06569809023575 2.125036817835795 0.5694018992260469
  endloop
endfacet
facet normal 1.0 1.7099459601118548e-16 2.5275604942261983e-14
  outer loop
    vertex 31.06569809023575 2.125036817835795 0.5694018992260469
    vertex 31.065698090235806 0.34020557137241986 0.8213289044030386
    vertex 31.065698090235806 0.44449999999985795 0.7698965839648572
  endloop
endfacet
facet normal 1.0 1.7099459601118548e-16 2.5275604942261983e-14
  outer loop
    vertex 31.06569809023575 2.125036817835795 0.5694018992260469
    vertex 31.065698090235806 0.44449999999985795 0.7698965839648572
    vertex 31.065698090235806 0.541188910388612 0.7052911195194015
  endloop
endfacet
facet normal 1.0 1.7099459601118548e-16 2.5275604942261983e-14
  outer loop
    vertex 31.06569809023575 2.125036817835795 0.5694018992260469
    vertex 31.065698090235806 0.541188910388612 0.7052911195194015
    vertex 31.065698090235806 0.6286179284746968 0.6286179284753175
  endloop
endfacet
facet normal 1.0 1.7099459601118548e-16 2.5275604942261983e-14
  outer loop
    vertex 31.06569809023575 2.125036817835795 0.5694018992260469
    vertex 31.065698090235806 0.6286179284746968 0.6286179284753175
    vertex 31.065698090235806 0.7052911195187659 0.5411889103892339
  endloop
endfacet
facet normal 1.0 1.7099459601118548e-16 2.5275604942261983e-14
  outer loop
    vertex 31.06569809023575 2.125036817835795 0.5694018992260469
    vertex 31.065698090235806 0.7052911195187659 0.5411889103892339
    vertex 31.06569809023575 2.1811786950222234 0.2871576228846033
  endloop
endfacet
facet normal 1.0 1.7099459601118548e-16 2.5275604942261983e-14
  outer loop
    vertex 31.06569809023575 2.1811786950222234 0.2871576228846033
    vertex 31.065698090235806 0.7052911195187659 0.5411889103892339
    vertex 31.065698090235806 0.7698965839642209 0.4445000000004861
  endloop
endfacet
facet normal 1.0 1.7099459601118548e-16 2.5275604942261983e-14
  outer loop
    vertex 31.06569809023575 2.1811786950222234 0.2871576228846033
    vertex 31.065698090235806 0.7698965839642209 0.4445000000004861
    vertex 31.065698090235806 0.8213289044023876 0.3402055713730575
  endloop
endfacet
facet normal 1.0 1.7099459601118548e-16 2.5275604942261983e-14
  outer loop
    vertex 31.06569809023575 2.1811786950222234 0.2871576228846033
    vertex 31.065698090235806 0.8213289044023876 0.3402055713730575
    vertex 31.065698090235806 0.8587080595708405 0.23009013109664042
  endloop
endfacet
facet normal 1.0 1.7099459601118548e-16 2.5275604942261983e-14
  outer loop
    vertex 31.06569809023575 2.1811786950222234 0.2871576228846033
    vertex 31.065698090235806 0.8587080595708405 0.23009013109664042
    vertex 31.06569809023575 2.199999999999848 4.95609109307793e-13
  endloop
endfacet
facet normal 1.0 1.7099459601118548e-16 2.5275604942261983e-14
  outer loop
    vertex 31.06569809023575 2.199999999999848 4.95609109307793e-13
    vertex 31.065698090235806 0.8587080595708405 0.23009013109664042
    vertex 31.065698090235806 0.8813944817611743 0.11603778488413279
  endloop
endfacet
facet normal 1.0 1.7099459601118548e-16 2.5275604942261983e-14
  outer loop
    vertex 31.06569809023575 2.199999999999848 4.95609109307793e-13
    vertex 31.065698090235806 0.8813944817611743 0.11603778488413279
    vertex 31.065698090235806 0.8889999999998569 4.95609109307793e-13
  endloop
endfacet
facet normal 0.015645633809168814 0.9925614306404545 0.12073533263996757
  outer loop
    vertex -21.955533973980852 3.0037731739402362 0.39545424053574324
    vertex 31.06569809023575 2.199999999999848 4.95609109307793e-13
    vertex -22.013756151056395 3.0306036928579307 4.924366470149266e-13
  endloop
endfacet
facet normal 0.015612901337056874 0.9977372954393029 0.06539515732303433
  outer loop
    vertex 31.06569809023575 2.199999999999848 4.95609109307793e-13
    vertex -21.955533973980852 3.0037731739402362 0.39545424053574324
    vertex 31.06569809023575 2.1811786950222234 0.2871576228846033
  endloop
endfacet
facet normal 0.01564433200079107 0.969881412480075 0.24307468112064598
  outer loop
    vertex -21.831866775897687 2.924589099057559 0.7836412872859014
    vertex 31.06569809023575 2.1811786950222234 0.2871576228846033
    vertex -21.955533973980852 3.0037731739402362 0.39545424053574324
  endloop
endfacet
facet normal 0.015646393291292155 0.9913234963241384 0.13051021420816136
  outer loop
    vertex 31.06569809023575 2.1811786950222234 0.2871576228846033
    vertex -21.831866775897687 2.924589099057559 0.7836412872859014
    vertex 31.06569809023575 2.125036817835795 0.5694018992260469
  endloop
endfacet
facet normal 0.015642733553261762 0.9318268745718848 0.3625658294883491
  outer loop
    vertex -21.645115755760102 2.7945832326632845 1.1575542761500566
    vertex 31.06569809023575 2.125036817835795 0.5694018992260469
    vertex -21.831866775897687 2.924589099057559 0.7836412872859014
  endloop
endfacet
facet normal 0.015646393291292224 0.9658075850832852 0.2587873624668853
  outer loop
    vertex 31.06569809023575 2.125036817835795 0.5694018992260469
    vertex -21.645115755760102 2.7945832326632845 1.1575542761500566
    vertex 31.06569809023575 2.0325349715246785 0.8419035512036795
  endloop
endfacet
facet normal 0.015641101198027134 0.8786298503868913 0.4772472545362855
  outer loop
    vertex -21.398830435482726 2.616246416226017 1.510490572674982
    vertex 31.06569809023575 2.0325349715246785 0.8419035512036795
    vertex -21.645115755760102 2.7945832326632845 1.1575542761500566
  endloop
endfacet
facet normal 0.01564639329129265 0.9237664382892068 0.3826365872044222
  outer loop
    vertex 31.06569809023575 2.0325349715246785 0.8419035512036795
    vertex -21.398830435482726 2.616246416226017 1.510490572674982
    vertex 31.06569809023575 1.905255888325613 1.1000000000005072
  endloop
endfacet
facet normal 0.015612901337056676 0.8313682654920658 0.5555025152459289
  outer loop
    vertex -21.162171897635783 2.4407927075340776 1.7664241016247562
    vertex 31.06569809023575 1.905255888325613 1.1000000000005072
    vertex -21.398830435482726 2.616246416226017 1.510490572674982
  endloop
endfacet
facet normal 0.015646393291292506 0.8659193916195116 0.499938793848076
  outer loop
    vertex 31.06569809023575 1.905255888325613 1.1000000000005072
    vertex -21.162171897635783 2.4407927075340776 1.7664241016247562
    vertex -21.10188680356679 2.3930190348973115 1.8362280882246522
  endloop
endfacet
facet normal 0.015646393291292506 0.8659193916195116 0.499938793848076
  outer loop
    vertex 31.06569809023575 1.905255888325613 1.1000000000005072
    vertex -21.10188680356679 2.3930190348973115 1.8362280882246522
    vertex 31.06569809023575 1.745377348640563 1.3392751438196873
  endloop
endfacet
facet normal 0.015639013669239317 0.7284017010102088 0.6849718119870977
  outer loop
    vertex -20.77437913598193 2.129246684289929 2.129246684290557
    vertex 31.06569809023575 1.745377348640563 1.3392751438196873
    vertex -21.10188680356679 2.3930190348973115 1.8362280882246522
  endloop
endfacet
facet normal 0.015646393291292183 0.7932562240810429 0.6086869091196725
  outer loop
    vertex 31.06569809023575 1.745377348640563 1.3392751438196873
    vertex -20.77437913598193 2.129246684289929 2.129246684290557
    vertex 31.06569809023575 1.5556349186102558 1.5556349186108798
  endloop
endfacet
facet normal 0.015646393291292696 0.7070202226163629 0.707020222616357
  outer loop
    vertex 31.06569809023575 1.5556349186102558 1.5556349186108798
    vertex -20.406832787021767 1.829606943297606 2.384390190832614
    vertex 31.06569809023575 1.3392751438190342 1.7453773486411943
  endloop
endfacet
facet normal 0.015638005580846416 0.6343345565843372 0.7729004613172421
  outer loop
    vertex -20.406832787021767 1.829606943297606 2.384390190832614
    vertex 31.06569809023575 1.5556349186102558 1.5556349186108798
    vertex -20.77437913598193 2.129246684289929 2.129246684290557
  endloop
endfacet
facet normal 0.015646393291292447 0.6086869091196292 0.7932562240810762
  outer loop
    vertex 31.06569809023575 1.3392751438190342 1.7453773486411943
    vertex -20.005962815301963 1.4995925613296819 2.5973705068760804
    vertex 31.06569809023575 1.0999999999998535 1.9052558883262434
  endloop
endfacet
facet normal 0.0156372217191637 0.529293832621116 0.8482944748412286
  outer loop
    vertex -20.005962815301963 1.4995925613296819 2.5973705068760804
    vertex 31.06569809023575 1.3392751438190342 1.7453773486411943
    vertex -20.406832787021767 1.829606943297606 2.384390190832614
  endloop
endfacet
facet normal 0.015646393291292294 0.49993879384807516 0.8659193916195121
  outer loop
    vertex 31.06569809023575 1.0999999999998535 1.9052558883262434
    vertex -19.58338094063884 1.1452078894869506 2.7647764185368597
    vertex 31.06569809023575 0.8419035512030504 2.032534971525316
  endloop
endfacet
facet normal 0.01563677912854356 0.41478410892096707 0.9097854879723707
  outer loop
    vertex -19.58338094063884 1.1452078894869506 2.7647764185368597
    vertex 31.06569809023575 1.0999999999998535 1.9052558883262434
    vertex -19.887796791432947 1.4015039762458963 2.643685140518931
  endloop
endfacet
facet normal 0.015612901337057093 0.4422347801935268 0.8967634228150826
  outer loop
    vertex -19.887796791432947 1.4015039762458963 2.643685140518931
    vertex 31.06569809023575 1.0999999999998535 1.9052558883262434
    vertex -20.005962815301963 1.4995925613296819 2.5973705068760804
  endloop
endfacet
facet normal 0.01564639329129267 0.3826365872045012 0.9237664382891742
  outer loop
    vertex 31.06569809023575 0.8419035512030504 2.032534971525316
    vertex -19.14208668458079 0.7727474617899053 2.8839327888209003
    vertex 31.06569809023575 0.5694018992254029 2.1250368178364325
  endloop
endfacet
facet normal 0.015636376896215526 0.2931788392731572 0.9559297421463588
  outer loop
    vertex -19.14208668458079 0.7727474617899053 2.8839327888209003
    vertex 31.06569809023575 0.8419035512030504 2.032534971525316
    vertex -19.58338094063884 1.1452078894869506 2.7647764185368597
  endloop
endfacet
facet normal 0.015646393291292717 0.25878736246692624 0.9658075850832742
  outer loop
    vertex 31.06569809023575 0.5694018992254029 2.1250368178364325
    vertex -18.688195060862935 0.3887806545161976 2.9530822554909317
    vertex 31.06569809023575 0.2871576228839727 2.181178695022874
  endloop
endfacet
facet normal 0.015636182576879366 0.16623746198519285 0.9859617720921761
  outer loop
    vertex -18.688195060862935 0.3887806545161976 2.9530822554909317
    vertex 31.06569809023575 0.5694018992254029 2.1250368178364325
    vertex -19.14208668458079 0.7727474617899053 2.8839327888209003
  endloop
endfacet
facet normal 0.015646393291292787 0.13051021420814518 0.9913234963241405
  outer loop
    vertex 31.06569809023575 0.2871576228839727 2.181178695022874
    vertex -18.229610279222996 -1.2760348333529236e-13 2.9713882095725204
    vertex 31.06569809023575 -1.4205581155835033e-13 2.2000000000004865
  endloop
endfacet
facet normal 0.015636190537773258 0.03610736227943992 0.9992255841073565
  outer loop
    vertex -18.229610279222996 -1.2760348333529236e-13 2.9713882095725204
    vertex 31.06569809023575 0.2871576228839727 2.181178695022874
    vertex -18.688195060862935 0.3887806545161976 2.9530822554909317
  endloop
endfacet
facet normal 0.015646393291292224 -0.13051021420818776 0.991323496324135
  outer loop
    vertex 31.06569809023575 -0.2871576228842568 2.181178695022874
    vertex -18.229610279222996 -1.2760348333529236e-13 2.9713882095725204
    vertex -17.774205453988877 -0.3869138177957783 2.938902222792073
  endloop
endfacet
facet normal 0.015636190537773258 0.03610736227943992 0.9992255841073565
  outer loop
    vertex -18.229610279222996 -1.2760348333529236e-13 2.9713882095725204
    vertex 31.06569809023575 -0.2871576228842568 2.181178695022874
    vertex 31.06569809023575 -1.4205581155835033e-13 2.2000000000004865
  endloop
endfacet
facet normal 0.015646166112350354 -0.2588449661175396 0.9657921520708245
  outer loop
    vertex 31.06569809023575 -0.5694018992256877 2.1250368178364325
    vertex -17.606436239195435 -0.5297640799267158 2.907816532828759
    vertex -17.347286014326073 -0.7654783748623123 2.856804187081384
  endloop
endfacet
facet normal 0.015612901337056503 -0.19506654269632606 0.980665733689284
  outer loop
    vertex -17.606436239195435 -0.5297640799267158 2.907816532828759
    vertex 31.06569809023575 -0.5694018992256877 2.1250368178364325
    vertex 31.06569809023575 -0.2871576228842568 2.181178695022874
  endloop
endfacet
facet normal 0.015612901337056503 -0.19506654269632606 0.980665733689284
  outer loop
    vertex -17.606436239195435 -0.5297640799267158 2.907816532828759
    vertex 31.06569809023575 -0.2871576228842568 2.181178695022874
    vertex -17.774205453988877 -0.3869138177957783 2.938902222792073
  endloop
endfacet
facet normal 0.015646393291292117 -0.6086869091196719 0.7932562240810433
  outer loop
    vertex 31.06569809023575 -1.3392751438193193 1.7453773486411943
    vertex -16.579163780864185 -1.472780756523661 2.550931098708931
    vertex -16.241438905531712 -1.7899270394222107 2.332678333309885
  endloop
endfacet
facet normal 0.01563909846103583 -0.47326363536261046 0.8807820105126424
  outer loop
    vertex -16.579163780864185 -1.472780756523661 2.550931098708931
    vertex 31.06569809023575 -1.3392751438193193 1.7453773486411943
    vertex 31.06569809023575 -1.1000000000001373 1.9052558883262434
  endloop
endfacet
facet normal 0.01564639329129218 -0.7070202226163573 0.7070202226163624
  outer loop
    vertex 31.06569809023575 -1.555634918610541 1.5556349186108798
    vertex -16.241438905531712 -1.7899270394222107 2.332678333309885
    vertex -15.94032213471501 -2.0757577213051546 2.0757577213055414
  endloop
endfacet
facet normal 0.01564008449597185 -0.5859144484030657 0.8102219738500618
  outer loop
    vertex -16.241438905531712 -1.7899270394222107 2.332678333309885
    vertex 31.06569809023575 -1.555634918610541 1.5556349186108798
    vertex 31.06569809023575 -1.3392751438193193 1.7453773486411943
  endloop
endfacet
facet normal 0.01564245055462472 -0.7793907997951351 0.626342793472828
  outer loop
    vertex -15.680597028807906 -2.3257156843867506 1.7845844109963036
    vertex 31.06569809023575 -1.555634918610541 1.5556349186108798
    vertex -15.94032213471501 -2.0757577213051546 2.0757577213055414
  endloop
endfacet
facet normal 0.01564639329129218 -0.7070202226163573 0.7070202226163624
  outer loop
    vertex 31.06569809023575 -1.555634918610541 1.5556349186108798
    vertex -15.680597028807906 -2.3257156843867506 1.7845844109963036
    vertex 31.06569809023575 -1.7453773486408555 1.339275143819651
  endloop
endfacet
facet normal 0.01564370085542942 -0.8564950003534653 0.5159181999048525
  outer loop
    vertex -15.46635144636234 -2.5358504518145355 1.4640739409801051
    vertex 31.06569809023575 -1.7453773486408555 1.339275143819651
    vertex -15.680597028807906 -2.3257156843867506 1.7845844109963036
  endloop
endfacet
facet normal 0.015646393291292242 -0.7932562240810367 0.6086869091196807
  outer loop
    vertex 31.06569809023575 -1.7453773486408555 1.339275143819651
    vertex -15.46635144636234 -2.5358504518145355 1.4640739409801051
    vertex 31.06569809023575 -1.9052558883258972 1.1000000000004784
  endloop
endfacet
facet normal 0.015644852783894617 -0.9183055549577982 0.395563075014618
  outer loop
    vertex -15.300930911980197 -2.7028643864573563 1.119563086126256
    vertex 31.06569809023575 -1.9052558883258972 1.1000000000004784
    vertex -15.46635144636234 -2.5358504518145355 1.4640739409801051
  endloop
endfacet
facet normal 0.015646393291292502 -0.8659193916195175 0.49993879384806583
  outer loop
    vertex 31.06569809023575 -1.9052558883258972 1.1000000000004784
    vertex -15.300930911980197 -2.7028643864573563 1.119563086126256
    vertex 31.06569809023575 -2.0325349715249628 0.8419035512036795
  endloop
endfacet
facet normal 0.01564576429689627 -0.9634480369795703 0.26743801169575526
  outer loop
    vertex -15.186902161252803 -2.824149756911902 0.7567286466695679
    vertex 31.06569809023575 -2.0325349715249628 0.8419035512036795
    vertex -15.300930911980197 -2.7028643864573563 1.119563086126256
  endloop
endfacet
facet normal 0.015646393291292537 -0.9237664382891931 0.3826365872044552
  outer loop
    vertex 31.06569809023575 -2.0325349715249628 0.8419035512036795
    vertex -15.186902161252803 -2.824149756911902 0.7567286466695679
    vertex 31.06569809023575 -2.125036817836079 0.5694018992260469
  endloop
endfacet
facet normal 0.01564629692391792 -0.9908592805601086 0.13398910224519295
  outer loop
    vertex -15.126026270784578 -2.8978172179647665 0.38150487429722824
    vertex 31.06569809023575 -2.125036817836079 0.5694018992260469
    vertex -15.186902161252803 -2.824149756911902 0.7567286466695679
  endloop
endfacet
facet normal 0.015646393291292297 -0.9658075850832802 0.2587873624669043
  outer loop
    vertex 31.06569809023575 -2.125036817836079 0.5694018992260469
    vertex -15.126026270784578 -2.8978172179647665 0.38150487429722824
    vertex 31.06569809023575 -2.1811786950225125 0.2871576228846033
  endloop
endfacet
facet normal 0.015612901337056957 -0.9977372954393054 0.06539515732299635
  outer loop
    vertex -15.119240626276035 -2.9227161846461347 4.927891428252451e-13
    vertex 31.06569809023575 -2.1811786950225125 0.2871576228846033
    vertex -15.126026270784578 -2.8978172179647665 0.38150487429722824
  endloop
endfacet
facet normal 0.015646393291292297 -0.991323496324141 0.13051021420814246
  outer loop
    vertex 31.06569809023575 -2.1811786950225125 0.2871576228846033
    vertex -15.119240626276035 -2.9227161846461347 4.927891428252451e-13
    vertex 31.06569809023575 -2.200000000000131 4.95609109307793e-13
  endloop
endfacet
facet normal 0.015645413777927025 -0.38269166461697096 0.9237436391447625
  outer loop
    vertex 31.06569809023575 -0.8419035512033352 2.032534971525316
    vertex -16.948075019562456 -1.1294300896351146 2.7266084188564705
    vertex 31.06569809023575 -1.1000000000001373 1.9052558883262434
  endloop
endfacet
facet normal 0.015645413777927025 -0.38269166461697096 0.9237436391447625
  outer loop
    vertex 31.06569809023575 -0.8419035512033352 2.032534971525316
    vertex -17.314752520304616 -0.7951383410933907 2.8461995104260556
    vertex -16.948075019562456 -1.1294300896351146 2.7266084188564705
  endloop
endfacet
facet normal 0.015612325860700894 -0.3215132262988037 0.946776373066076
  outer loop
    vertex -17.314752520304616 -0.7951383410933907 2.8461995104260556
    vertex 31.06569809023575 -0.8419035512033352 2.032534971525316
    vertex 31.06569809023575 -0.5694018992256877 2.1250368178364325
  endloop
endfacet
facet normal 0.015612325860700894 -0.3215132262988037 0.946776373066076
  outer loop
    vertex -17.314752520304616 -0.7951383410933907 2.8461995104260556
    vertex 31.06569809023575 -0.5694018992256877 2.1250368178364325
    vertex -17.347286014326073 -0.7654783748623123 2.856804187081384
  endloop
endfacet
facet normal -0.6715094831025683 -0.7401033872291479 0.036359184744207816
  outer loop
    vertex -15.119240626276035 -2.9227161846461347 4.927891428252451e-13
    vertex -15.662541740423615 -2.422893053346003 0.13996013462571222
    vertex -15.681437062554119 -2.4126248764103813 4.4907966234575267e-13
  endloop
endfacet
facet normal -0.6715094831025683 -0.7401033872291479 0.036359184744207816
  outer loop
    vertex -15.662541740423615 -2.422893053346003 0.13996013462571222
    vertex -15.119240626276035 -2.9227161846461347 4.927891428252451e-13
    vertex -15.46635144636234 -2.5358504518145355 1.4640739409801051
  endloop
endfacet
facet normal -0.6715094831025683 -0.7401033872291479 0.036359184744207816
  outer loop
    vertex -15.46635144636234 -2.5358504518145355 1.4640739409801051
    vertex -15.119240626276035 -2.9227161846461347 4.927891428252451e-13
    vertex -15.300930911980197 -2.7028643864573563 1.119563086126256
  endloop
endfacet
facet normal -0.6715094831025683 -0.7401033872291479 0.036359184744207816
  outer loop
    vertex -15.300930911980197 -2.7028643864573563 1.119563086126256
    vertex -15.119240626276035 -2.9227161846461347 4.927891428252451e-13
    vertex -15.186902161252803 -2.824149756911902 0.7567286466695679
  endloop
endfacet
facet normal -0.6715094831025683 -0.7401033872291479 0.036359184744207816
  outer loop
    vertex -15.186902161252803 -2.824149756911902 0.7567286466695679
    vertex -15.119240626276035 -2.9227161846461347 4.927891428252451e-13
    vertex -15.126026270784578 -2.8978172179647665 0.38150487429722824
  endloop
endfacet
facet normal -0.6613270435797601 -0.7491941556459157 0.036805686735304946
  outer loop
    vertex -17.60643623919543 -0.5502828270075939 2.3562329387266416
    vertex -16.948075019562456 -1.1294300896351146 2.7266084188564705
    vertex -17.606436239195435 -0.5330499661865356 2.7070158792552292
  endloop
endfacet
facet normal -0.6715246937650788 -0.740187835659808 0.034300927173569966
  outer loop
    vertex -16.948075019562456 -1.1294300896351146 2.7266084188564705
    vertex -17.60643623919543 -0.5502828270075939 2.3562329387266416
    vertex -17.021335235658317 -1.090393457055091 2.1681887378380527
  endloop
endfacet
facet normal -0.6715246937650788 -0.740187835659808 0.034300927173569966
  outer loop
    vertex -16.948075019562456 -1.1294300896351146 2.7266084188564705
    vertex -17.021335235658317 -1.090393457055091 2.1681887378380527
    vertex -16.463094128635934 -1.6143878764859343 1.812135899221671
  endloop
endfacet
facet normal -0.6715246937650788 -0.740187835659808 0.034300927173569966
  outer loop
    vertex -16.948075019562456 -1.1294300896351146 2.7266084188564705
    vertex -16.463094128635934 -1.6143878764859343 1.812135899221671
    vertex -16.91592857872989 -1.1593461209779614 2.71136312465712
  endloop
endfacet
facet normal -0.6715094831025683 -0.7401033872291479 0.036359184744207816
  outer loop
    vertex -16.91592857872989 -1.1593461209779614 2.71136312465712
    vertex -16.463094128635934 -1.6143878764859343 1.812135899221671
    vertex -16.579163780864185 -1.472780756523661 2.550931098708931
  endloop
endfacet
facet normal -0.6715094831025683 -0.7401033872291479 0.036359184744207816
  outer loop
    vertex -16.579163780864185 -1.472780756523661 2.550931098708931
    vertex -16.463094128635934 -1.6143878764859343 1.812135899221671
    vertex -16.241438905531712 -1.7899270394222107 2.332678333309885
  endloop
endfacet
facet normal -0.6715094831025683 -0.7401033872291479 0.036359184744207816
  outer loop
    vertex -16.241438905531712 -1.7899270394222107 2.332678333309885
    vertex -16.463094128635934 -1.6143878764859343 1.812135899221671
    vertex -16.032784370033614 -2.028374363348791 1.3325955316023754
  endloop
endfacet
facet normal -0.6715094831025683 -0.7401033872291479 0.036359184744207816
  outer loop
    vertex -16.241438905531712 -1.7899270394222107 2.332678333309885
    vertex -16.032784370033614 -2.028374363348791 1.3325955316023754
    vertex -15.94032213471501 -2.0757577213051546 2.0757577213055414
  endloop
endfacet
facet normal -0.6715094831025683 -0.7401033872291479 0.036359184744207816
  outer loop
    vertex -15.94032213471501 -2.0757577213051546 2.0757577213055414
    vertex -16.032784370033614 -2.028374363348791 1.3325955316023754
    vertex -15.759730858779553 -2.3041404227090063 0.7622475185555923
  endloop
endfacet
facet normal -0.6715094831025683 -0.7401033872291479 0.036359184744207816
  outer loop
    vertex -15.94032213471501 -2.0757577213051546 2.0757577213055414
    vertex -15.759730858779553 -2.3041404227090063 0.7622475185555923
    vertex -15.680597028807906 -2.3257156843867506 1.7845844109963036
  endloop
endfacet
facet normal -0.6715094831025683 -0.7401033872291479 0.036359184744207816
  outer loop
    vertex -15.680597028807906 -2.3257156843867506 1.7845844109963036
    vertex -15.759730858779553 -2.3041404227090063 0.7622475185555923
    vertex -15.662541740423615 -2.422893053346003 0.13996013462571222
  endloop
endfacet
facet normal -0.6715094831025683 -0.7401033872291479 0.036359184744207816
  outer loop
    vertex -15.680597028807906 -2.3257156843867506 1.7845844109963036
    vertex -15.662541740423615 -2.422893053346003 0.13996013462571222
    vertex -15.46635144636234 -2.5358504518145355 1.4640739409801051
  endloop
endfacet
facet normal 0.015645769416215476 -0.49993845175962787 0.8659196003969197
  outer loop
    vertex 31.06569809023575 -1.1000000000001373 1.9052558883262434
    vertex -16.948075019562456 -1.1294300896351146 2.7266084188564705
    vertex -16.91592857872989 -1.1593461209779614 2.71136312465712
  endloop
endfacet
facet normal 0.015645769416215476 -0.49993845175962787 0.8659196003969197
  outer loop
    vertex 31.06569809023575 -1.1000000000001373 1.9052558883262434
    vertex -16.91592857872989 -1.1593461209779614 2.71136312465712
    vertex -16.579163780864185 -1.472780756523661 2.550931098708931
  endloop
endfacet
facet normal -0.6715246937650788 -0.740187835659808 0.034300927173569966
  outer loop
    vertex -16.948075019562456 -1.1294300896351146 2.7266084188564705
    vertex -17.606436239195435 -0.5297640799267158 2.907816532828759
    vertex -17.606436239195435 -0.5330499661865356 2.7070158792552292
  endloop
endfacet
facet normal -0.6580926826545168 -0.752836152636909 0.012318616782681072
  outer loop
    vertex -17.606436239195435 -0.5297640799267158 2.907816532828759
    vertex -16.948075019562456 -1.1294300896351146 2.7266084188564705
    vertex -17.347286014326073 -0.7654783748623123 2.856804187081384
  endloop
endfacet
facet normal -0.6715078519237362 -0.7408982743294882 0.012122371894817813
  outer loop
    vertex -17.347286014326073 -0.7654783748623123 2.856804187081384
    vertex -16.948075019562456 -1.1294300896351146 2.7266084188564705
    vertex -17.314752520304616 -0.7951383410933907 2.8461995104260556
  endloop
endfacet
facet normal -0.6592608763747358 -0.7515117056273602 0.024601893965117746
  outer loop
    vertex -17.606436239195435 -0.5330499661865356 2.7070158792552292
    vertex -19.58338094063884 1.1452078894869506 2.7647764185368597
    vertex -19.887796791432947 1.4015039762458963 2.643685140518931
  endloop
endfacet
facet normal -0.6469057932408137 -0.7624678485209967 0.012476964504083208
  outer loop
    vertex -19.58338094063884 1.1452078894869506 2.7647764185368597
    vertex -17.606436239195435 -0.5330499661865356 2.7070158792552292
    vertex -19.14208668458079 0.7727474617899053 2.8839327888209003
  endloop
endfacet
facet normal -0.6469057932408137 -0.7624678485209967 0.012476964504083208
  outer loop
    vertex -19.14208668458079 0.7727474617899053 2.8839327888209003
    vertex -17.606436239195435 -0.5330499661865356 2.7070158792552292
    vertex -18.688195060862935 0.3887806545161976 2.9530822554909317
  endloop
endfacet
facet normal -0.6469057932408137 -0.7624678485209967 0.012476964504083208
  outer loop
    vertex -18.688195060862935 0.3887806545161976 2.9530822554909317
    vertex -17.606436239195435 -0.5330499661865356 2.7070158792552292
    vertex -18.229610279222996 -1.2760348333529236e-13 2.9713882095725204
  endloop
endfacet
facet normal -0.6469057932408137 -0.7624678485209967 0.012476964504083208
  outer loop
    vertex -18.229610279222996 -1.2760348333529236e-13 2.9713882095725204
    vertex -17.606436239195435 -0.5330499661865356 2.7070158792552292
    vertex -17.774205453988877 -0.3869138177957783 2.938902222792073
  endloop
endfacet
facet normal -0.6469057932408137 -0.7624678485209967 0.012476964504083208
  outer loop
    vertex -17.774205453988877 -0.3869138177957783 2.938902222792073
    vertex -17.606436239195435 -0.5330499661865356 2.7070158792552292
    vertex -17.606436239195435 -0.5297640799267158 2.907816532828759
  endloop
endfacet
facet normal -0.6231440495314903 -0.781165003483047 0.038376175771264565
  outer loop
    vertex -21.162171897635773 2.377409170584203 0.4762225672840652
    vertex -21.10188680356679 2.3930190348973115 1.8362280882246522
    vertex -21.162171897635783 2.4407927075340776 1.7664241016247562
  endloop
endfacet
facet normal -0.6469057932408108 -0.7616513788510696 0.037417532865513706
  outer loop
    vertex -21.10188680356679 2.3930190348973115 1.8362280882246522
    vertex -21.162171897635773 2.377409170584203 0.4762225672840652
    vertex -21.159889184279105 2.3762479394570324 0.4920506339738641
  endloop
endfacet
facet normal -0.6469057932408108 -0.7616513788510696 0.037417532865513706
  outer loop
    vertex -21.10188680356679 2.3930190348973115 1.8362280882246522
    vertex -21.159889184279105 2.3762479394570324 0.4920506339738641
    vertex -20.88003496858951 2.1679470423900287 1.0903436322301678
  endloop
endfacet
facet normal -0.6469057932408108 -0.7616513788510696 0.037417532865513706
  outer loop
    vertex -21.10188680356679 2.3930190348973115 1.8362280882246522
    vertex -20.88003496858951 2.1679470423900287 1.0903436322301678
    vertex -20.77437913598193 2.129246684289929 2.129246684290557
  endloop
endfacet
facet normal -0.6469057932408108 -0.7616513788510696 0.037417532865513706
  outer loop
    vertex -20.77437913598193 2.129246684289929 2.129246684290557
    vertex -20.88003496858951 2.1679470423900287 1.0903436322301678
    vertex -20.430509353458294 1.8118868441303875 1.6143488826713361
  endloop
endfacet
facet normal -0.6469057932408108 -0.7616513788510696 0.037417532865513706
  outer loop
    vertex -20.77437913598193 2.129246684289929 2.129246684290557
    vertex -20.430509353458294 1.8118868441303875 1.6143488826713361
    vertex -20.406832787021767 1.829606943297606 2.384390190832614
  endloop
endfacet
facet normal -0.6469057932408108 -0.7616513788510696 0.037417532865513706
  outer loop
    vertex -20.406832787021767 1.829606943297606 2.384390190832614
    vertex -20.430509353458294 1.8118868441303875 1.6143488826713361
    vertex -19.842395275543698 1.332707440551719 2.0282390953789995
  endloop
endfacet
facet normal -0.6469057932408108 -0.7616513788510696 0.037417532865513706
  outer loop
    vertex -20.406832787021767 1.829606943297606 2.384390190832614
    vertex -19.842395275543698 1.332707440551719 2.0282390953789995
    vertex -20.005962815301963 1.4995925613296819 2.5973705068760804
  endloop
endfacet
facet normal -0.6469057932408108 -0.7616513788510696 0.037417532865513706
  outer loop
    vertex -20.005962815301963 1.4995925613296819 2.5973705068760804
    vertex -19.842395275543698 1.332707440551719 2.0282390953789995
    vertex -19.887796791432947 1.4015039762458963 2.643685140518931
  endloop
endfacet
facet normal -0.6469218307008053 -0.7617414839838398 0.035242822543271095
  outer loop
    vertex -19.887796791432947 1.4015039762458963 2.643685140518931
    vertex -19.842395275543698 1.332707440551719 2.0282390953789995
    vertex -19.154514025624852 0.7620094584321855 2.3040846644192268
  endloop
endfacet
facet normal -0.6469218307008053 -0.7617414839838398 0.035242822543271095
  outer loop
    vertex -19.887796791432947 1.4015039762458963 2.643685140518931
    vertex -19.154514025624852 0.7620094584321855 2.3040846644192268
    vertex -17.606436239195435 -0.5330499661865356 2.7070158792552292
  endloop
endfacet
facet normal -0.6592608763747358 -0.7515117056273602 0.024601893965117746
  outer loop
    vertex -17.606436239195435 -0.5330499661865356 2.7070158792552292
    vertex -19.154514025624852 0.7620094584321855 2.3040846644192268
    vertex -18.414973930690493 0.1397180354259176 2.4228431988995967
  endloop
endfacet
facet normal -0.6592608763747358 -0.7515117056273602 0.024601893965117746
  outer loop
    vertex -17.606436239195435 -0.5330499661865356 2.7070158792552292
    vertex -18.414973930690493 0.1397180354259176 2.4228431988995967
    vertex -17.673767102253297 -0.49210045879880643 2.376489634905101
  endloop
endfacet
facet normal -0.6592608763747358 -0.7515117056273602 0.024601893965117746
  outer loop
    vertex -17.606436239195435 -0.5330499661865356 2.7070158792552292
    vertex -17.673767102253297 -0.49210045879880643 2.376489634905101
    vertex -17.60643623919543 -0.5502828270075939 2.3562329387266416
  endloop
endfacet
facet normal 4.518727397095364e-16 -2.2632553887394745e-15 -1.0
  outer loop
    vertex -15.681437062554119 -2.4126248764103813 4.4907966234575267e-13
    vertex 31.06569809023575 -2.200000000000131 4.95609109307793e-13
    vertex -15.119240626276035 -2.9227161846461347 4.927891428252451e-13
  endloop
endfacet
facet normal 4.518727397095364e-16 -2.2632553887394745e-15 -1.0
  outer loop
    vertex 31.06569809023575 -2.200000000000131 4.95609109307793e-13
    vertex -15.681437062554119 -2.4126248764103813 4.4907966234575267e-13
    vertex -31.06569809023575 -2.4126248337286014 4.867967140498308e-13
  endloop
endfacet
facet normal 4.518727397095364e-16 -2.2632553887394745e-15 -1.0
  outer loop
    vertex 31.06569809023575 -2.200000000000131 4.95609109307793e-13
    vertex -31.06569809023575 -2.4126248337286014 4.867967140498308e-13
    vertex -15.445066909764218 -0.8890000000001421 4.927891428252451e-13
  endloop
endfacet
facet normal 4.518727397095364e-16 -2.2632553887394745e-15 -1.0
  outer loop
    vertex -15.445066909764218 -0.8890000000001421 4.927891428252451e-13
    vertex -31.06569809023575 -2.4126248337286014 4.867967140498308e-13
    vertex -31.06569809023575 2.4123473901045718 4.4238224194970144e-13
  endloop
endfacet
facet normal 4.518727397095364e-16 -2.2632553887394745e-15 -1.0
  outer loop
    vertex -15.445066909764218 -0.8890000000001421 4.927891428252451e-13
    vertex -31.06569809023575 2.4123473901045718 4.4238224194970144e-13
    vertex -15.445066909764218 0.8889999999998569 4.927891428252451e-13
  endloop
endfacet
facet normal 4.518727397095364e-16 -2.2632553887394745e-15 -1.0
  outer loop
    vertex -15.445066909764218 0.8889999999998569 4.927891428252451e-13
    vertex -31.06569809023575 2.4123473901045718 4.4238224194970144e-13
    vertex 31.065698090235806 0.8889999999998569 4.95609109307793e-13
  endloop
endfacet
facet normal 4.518727397095364e-16 -2.2632553887394745e-15 -1.0
  outer loop
    vertex 31.065698090235806 0.8889999999998569 4.95609109307793e-13
    vertex -31.06569809023575 2.4123473901045718 4.4238224194970144e-13
    vertex 31.06569809023575 2.199999999999848 4.95609109307793e-13
  endloop
endfacet
facet normal 4.518727397095364e-16 -2.2632553887394745e-15 -1.0
  outer loop
    vertex 31.06569809023575 2.199999999999848 4.95609109307793e-13
    vertex -31.06569809023575 2.4123473901045718 4.4238224194970144e-13
    vertex -21.235592922211538 2.412347390104565 4.367423089846056e-13
  endloop
endfacet
facet normal 4.518727397095364e-16 -2.2632553887394745e-15 -1.0
  outer loop
    vertex -22.013756151056395 3.0306036928579307 4.924366470149266e-13
    vertex 31.06569809023575 2.199999999999848 4.95609109307793e-13
    vertex -21.235592922211538 2.412347390104565 4.367423089846056e-13
  endloop
endfacet
facet normal 4.518727397095364e-16 -2.2632553887394745e-15 -1.0
  outer loop
    vertex 31.065698090235806 -0.8890000000001421 4.95609109307793e-13
    vertex 31.06569809023575 -2.200000000000131 4.95609109307793e-13
    vertex -15.445066909764218 -0.8890000000001421 4.927891428252451e-13
  endloop
endfacet
endsolid Antenna-2 Base-2
